<svg width="28" height="37" viewBox="0 0 28 37" fill="none" xmlns="http://www.w3.org/2000/svg">
<path fill-rule="evenodd" clip-rule="evenodd" d="M12.4169 6.41677C12.4169 8.17952 10.8836 9.83354 8.70844 9.83354C6.53325 9.83354 5 8.17952 5 6.41677C5 4.65402 6.53325 3 8.70844 3C10.8836 3 12.4169 4.65402 12.4169 6.41677ZM10.2695 12.6589C13.2216 11.9859 15.4169 9.44658 15.4169 6.41677C15.4169 2.87289 12.4134 0 8.70844 0C5.00347 0 2 2.87289 2 6.41677C2 9.52979 4.31754 12.125 7.39233 12.7101C3.40847 13.2673 0.339447 15.8063 0.0263497 18.9298H0.000198025V19.4116L0 19.4575L0.000198025 19.5034V21.9298V30.1155C0.000198025 32.8769 2.23877 35.1155 5.0002 35.1155H13.0286C11.9509 34.3238 11.0552 33.299 10.4157 32.1155H5.0002C3.89563 32.1155 3.0002 31.22 3.0002 30.1155V19.5034V19.4905L3.00009 19.4775L3 19.4575L3.00009 19.4375L3.0002 19.4246V19.4116V19.3406L3.01139 19.229C3.1525 17.8213 5.13198 15.5962 9.04181 15.5962C12.9516 15.5962 14.9311 17.8213 15.0722 19.229L15.0838 19.3446V19.3998C16.0055 19.0393 17.0009 18.8257 18.0411 18.7878C17.6368 15.6208 14.3954 13.0839 10.2695 12.6589Z" fill="black"/>
<path d="M20.299 36.5H18.6925C18.3138 36.5 17.9506 36.3495 17.6828 36.0817C17.4149 35.8139 17.2645 35.4507 17.2645 35.072V34.1455C17.2599 34.0909 17.2399 34.0388 17.2068 33.9951C17.1737 33.9515 17.1288 33.9181 17.0775 33.899C17.0255 33.8657 16.965 33.848 16.9032 33.848C16.8415 33.848 16.781 33.8657 16.729 33.899L16.1 34.579C15.9681 34.7119 15.8111 34.8173 15.6383 34.8893C15.4654 34.9612 15.28 34.9983 15.0927 34.9983C14.9055 34.9983 14.7201 34.9612 14.5472 34.8893C14.3744 34.8173 14.2174 34.7119 14.0855 34.579L12.921 33.44C12.7862 33.3083 12.6792 33.151 12.6062 32.9772C12.5332 32.8035 12.4957 32.6169 12.496 32.4285C12.4965 32.043 12.6493 31.6734 12.921 31.4L13.55 30.771C13.5804 30.7242 13.5965 30.6696 13.5965 30.6137C13.5965 30.5579 13.5804 30.5033 13.55 30.4565C13.499 30.329 13.414 30.2355 13.295 30.2355H12.428C12.0485 30.2333 11.6853 30.0809 11.4177 29.8118C11.1502 29.5426 11 29.1785 11 28.799V27.1925C11 26.8138 11.1504 26.4506 11.4183 26.1828C11.6861 25.9149 12.0493 25.7645 12.428 25.7645H13.3545C13.4091 25.7599 13.4612 25.7399 13.5049 25.7068C13.5485 25.6737 13.5819 25.6288 13.601 25.5775C13.6343 25.5255 13.652 25.465 13.652 25.4032C13.652 25.3415 13.6343 25.281 13.601 25.229L12.921 24.6C12.7881 24.4681 12.6827 24.3111 12.6107 24.1383C12.5388 23.9654 12.5017 23.78 12.5017 23.5927C12.5017 23.4055 12.5388 23.2201 12.6107 23.0472C12.6827 22.8744 12.7881 22.7174 12.921 22.5855L14.06 21.421C14.1904 21.2868 14.3463 21.1801 14.5186 21.1071C14.6908 21.0342 14.8759 20.9964 15.063 20.996C15.2553 20.9952 15.4459 21.0323 15.6238 21.1052C15.8018 21.1781 15.9636 21.2854 16.1 21.421L16.729 22.05C16.7758 22.0804 16.8304 22.0965 16.8862 22.0965C16.9421 22.0965 16.9967 22.0804 17.0435 22.05C17.171 21.999 17.2645 21.914 17.2645 21.795V20.928C17.2667 20.5485 17.4191 20.1853 17.6882 19.9177C17.9574 19.6502 18.3215 19.5 18.701 19.5H20.35C20.7287 19.5 21.0919 19.6504 21.3597 19.9183C21.6275 20.1861 21.778 20.5493 21.778 20.928V21.8545C21.7826 21.9091 21.8026 21.9612 21.8357 22.0049C21.8688 22.0485 21.9137 22.0819 21.965 22.101C22.017 22.1343 22.0775 22.152 22.1392 22.152C22.201 22.152 22.2615 22.1343 22.3135 22.101L22.9 21.421C23.0319 21.2881 23.1889 21.1827 23.3617 21.1107C23.5346 21.0388 23.72 21.0017 23.9072 21.0017C24.0945 21.0017 24.2799 21.0388 24.4528 21.1107C24.6256 21.1827 24.7826 21.2881 24.9145 21.421L26.079 22.56C26.2134 22.692 26.3202 22.8494 26.3932 23.023C26.4661 23.1967 26.5038 23.3831 26.504 23.5715C26.5081 23.763 26.4725 23.9533 26.3993 24.1303C26.3261 24.3073 26.2171 24.4673 26.079 24.6L25.45 25.229C25.4196 25.2758 25.4035 25.3304 25.4035 25.3862C25.4035 25.4421 25.4196 25.4967 25.45 25.5435C25.501 25.671 25.586 25.7645 25.705 25.7645H26.6315C27.0006 25.782 27.3487 25.941 27.6036 26.2085C27.8584 26.4761 28.0004 26.8315 28 27.201V28.85C28 29.2287 27.8495 29.5919 27.5817 29.8597C27.3139 30.1275 26.9507 30.278 26.572 30.278H25.6455C25.5909 30.2826 25.5388 30.3026 25.4951 30.3357C25.4515 30.3688 25.4181 30.4137 25.399 30.465C25.3686 30.5118 25.3525 30.5664 25.3525 30.6222C25.3525 30.6781 25.3686 30.7327 25.399 30.7795L26.0535 31.434C26.1864 31.5659 26.2918 31.7229 26.3638 31.8957C26.4357 32.0686 26.4728 32.254 26.4728 32.4412C26.4728 32.6285 26.4357 32.8139 26.3638 32.9868C26.2918 33.1596 26.1864 33.3166 26.0535 33.4485L24.94 34.579C24.8096 34.7132 24.6537 34.8199 24.4814 34.8929C24.3092 34.9658 24.1241 35.0036 23.937 35.004C23.5574 34.999 23.1947 34.8466 22.9255 34.579L22.271 33.95C22.2242 33.9196 22.1696 33.9035 22.1137 33.9035C22.0579 33.9035 22.0033 33.9196 21.9565 33.95C21.829 34.001 21.7355 34.086 21.7355 34.205V35.1315C21.718 35.5006 21.559 35.8487 21.2915 36.1036C21.0239 36.3584 20.6685 36.5004 20.299 36.5V36.5ZM18.9645 34.8H20.0355V34.1455C20.0391 33.7535 20.159 33.3714 20.3799 33.0476C20.6008 32.7238 20.9129 32.4728 21.2765 32.3265C21.6416 32.1669 22.046 32.1197 22.4381 32.1908C22.8302 32.262 23.1922 32.4483 23.478 32.726L23.937 33.185L24.685 32.437L24.226 31.9695C23.95 31.688 23.7639 31.3309 23.6913 30.9435C23.6186 30.5561 23.6627 30.1558 23.818 29.7935C23.9657 29.4314 24.2172 29.1212 24.5409 28.9019C24.8646 28.6825 25.246 28.5639 25.637 28.561H26.3V27.4645H25.6455C25.2535 27.4609 24.8714 27.341 24.5476 27.1201C24.2238 26.8992 23.9728 26.5871 23.8265 26.2235C23.6669 25.8584 23.6197 25.454 23.6908 25.0619C23.762 24.6698 23.9483 24.3078 24.226 24.022L24.685 23.563L23.937 22.815L23.4695 23.274C23.1837 23.5351 22.8292 23.7091 22.4478 23.7755C22.0664 23.8418 21.674 23.7979 21.3167 23.6487C20.9595 23.4996 20.6523 23.2515 20.4313 22.9336C20.2104 22.6157 20.0848 22.2413 20.0695 21.8545V21.2H18.9645V21.8545C18.9609 22.2465 18.841 22.6286 18.6201 22.9524C18.3992 23.2762 18.0871 23.5272 17.7235 23.6735C17.3584 23.8331 16.954 23.8803 16.5619 23.8092C16.1698 23.738 15.8078 23.5517 15.522 23.274L15.063 22.815L14.315 23.563L14.774 24.0305C15.0351 24.3163 15.2091 24.6708 15.2755 25.0522C15.3418 25.4336 15.2979 25.826 15.1487 26.1833C14.9996 26.5405 14.7515 26.8477 14.4336 27.0687C14.1157 27.2896 13.7413 27.4152 13.3545 27.4305H12.7V28.5015H13.3545C13.7465 28.5051 14.1286 28.625 14.4524 28.8459C14.7762 29.0668 15.0272 29.3789 15.1735 29.7425C15.3331 30.1076 15.3803 30.512 15.3092 30.9041C15.238 31.2962 15.0517 31.6582 14.774 31.944L14.315 32.403L15.063 33.151L15.5305 32.692C15.8163 32.4309 16.1708 32.2569 16.5522 32.1905C16.9336 32.1242 17.326 32.1681 17.6833 32.3173C18.0405 32.4664 18.3477 32.7145 18.5687 33.0324C18.7896 33.3503 18.9152 33.7247 18.9305 34.1115L18.9645 34.8Z" fill="black"/>
<path d="M19.5 30.9749C18.9116 30.9749 18.3364 30.8004 17.8472 30.4735C17.358 30.1466 16.9767 29.682 16.7515 29.1384C16.5263 28.5948 16.4674 27.9966 16.5822 27.4195C16.697 26.8424 16.9803 26.3123 17.3964 25.8963C17.8124 25.4802 18.3425 25.1969 18.9196 25.0821C19.4967 24.9673 20.0949 25.0262 20.6385 25.2514C21.1821 25.4765 21.6468 25.8578 21.9736 26.3471C22.3005 26.8363 22.475 27.4115 22.475 27.9999C22.475 28.7889 22.1616 29.5456 21.6037 30.1035C21.0457 30.6615 20.289 30.9749 19.5 30.9749V30.9749ZM19.5 26.7249C19.2479 26.7249 19.0013 26.7997 18.7917 26.9398C18.582 27.0799 18.4186 27.279 18.3221 27.512C18.2256 27.745 18.2003 28.0013 18.2495 28.2486C18.2987 28.496 18.4202 28.7232 18.5985 28.9015C18.7768 29.0798 19.004 29.2012 19.2513 29.2504C19.4986 29.2996 19.755 29.2744 19.9879 29.1779C20.2209 29.0813 20.4201 28.9179 20.5601 28.7083C20.7002 28.4986 20.775 28.2521 20.775 27.9999C20.775 27.6618 20.6407 27.3375 20.4016 27.0983C20.1625 26.8592 19.8382 26.7249 19.5 26.7249Z" fill="black"/>
</svg>
