<svg width="28" height="40" viewBox="0 0 28 40" fill="none" xmlns="http://www.w3.org/2000/svg">
<path fill-rule="evenodd" clip-rule="evenodd" d="M13.3916 7.5C13.3916 9.83643 11.6127 11.5005 9.6958 11.5005C7.77893 11.5005 6 9.83643 6 7.5C6 5.16406 7.77893 3.5 9.6958 3.5C11.6127 3.5 13.3916 5.16406 13.3916 7.5ZM11.7628 14.1606C14.4492 13.25 16.3916 10.6118 16.3916 7.5C16.3916 3.63428 13.3938 0.5 9.6958 0.5C5.9978 0.5 3 3.63428 3 7.5C3 10.5972 4.92358 13.2246 7.58984 14.1475C3.48499 14.8213 0.354004 17.4795 0.0280762 20.7324H0V21.2944V23.7324V32.9829C0 35.7441 2.23853 37.9829 5 37.9829H14.1412C15.5687 39.0093 17.3033 39.6113 19.1738 39.6113C24.0485 39.6113 28 35.5234 28 30.4805C28 25.4722 24.1019 21.4058 19.2731 21.3506V21.2944V20.7324H19.245C18.9211 17.5005 15.8285 14.8555 11.7628 14.1606ZM16.2731 21.8545C12.8234 23.0957 10.3475 26.4893 10.3475 30.4805C10.3475 32.1177 10.7639 33.6543 11.4933 34.9829H5C3.89539 34.9829 3 34.0874 3 32.9829V21.2944V21.1621L3.01306 21.0312C3.17749 19.3906 5.41357 16.9819 9.6366 16.9819C13.8596 16.9819 16.0956 19.3906 16.26 21.0312L16.2731 21.1621V21.2944V21.8545ZM17.6522 34.4365C17.6522 35.2769 18.3335 35.9585 19.174 35.9585C20.0144 35.9585 20.6958 35.2769 20.6958 34.4365V32.3062H22.8269C23.6674 32.3062 24.3486 31.625 24.3486 30.7842C24.3486 29.9438 23.6674 29.2627 22.8269 29.2627H20.6958V27.1323C20.6958 26.2915 20.0144 25.6104 19.174 25.6104C18.3335 25.6104 17.6522 26.2915 17.6522 27.1323V29.2627H15.5223C14.6819 29.2627 14.0006 29.9438 14.0006 30.7842C14.0006 31.625 14.6819 32.3062 15.5223 32.3062H17.6522V34.4365Z" fill="black"/>
</svg>
