<svg width="32" height="29" viewBox="0 0 32 29" fill="none" xmlns="http://www.w3.org/2000/svg">
<path fill-rule="evenodd" clip-rule="evenodd" d="M7.0708 0.938614C7.35205 0.657753 7.73327 0.5 8.13074 0.5H22.5559C22.9691 0.5 23.3641 0.67048 23.6475 0.971207L29.4176 7.09351C29.8281 7.52915 29.9404 8.16719 29.7031 8.71679C29.4659 9.26639 28.9246 9.62231 28.326 9.62231H28.3135C28.3217 9.71308 28.326 9.80502 28.326 9.89795V13.0985C27.4535 12.3854 26.4366 11.8423 25.326 11.5196V9.89795H5.00004L5.00004 21.0404H14.5565C14.7299 22.1222 15.1074 23.1358 15.6483 24.0404H5.00004C3.34319 24.0404 2.00004 22.6973 2.00004 21.0404V9.89795C2.00004 9.80502 2.00427 9.71308 2.01254 9.62231H2.00004C1.39316 9.62231 0.84608 9.25662 0.614028 8.69586C0.381977 8.13509 0.510687 7.48976 0.94011 7.06092L7.0708 0.938614ZM8.75146 3.5L5.62487 6.62231H24.8511L21.9084 3.5H8.75146Z" fill="black"/>
<path d="M24.299 29H22.6925C22.3138 29 21.9506 28.8495 21.6828 28.5817C21.4149 28.3139 21.2645 27.9507 21.2645 27.572V26.6455C21.2599 26.5909 21.2399 26.5388 21.2068 26.4951C21.1737 26.4515 21.1288 26.4181 21.0775 26.399C21.0255 26.3657 20.965 26.348 20.9032 26.348C20.8415 26.348 20.781 26.3657 20.729 26.399L20.1 27.079C19.9681 27.2119 19.8111 27.3173 19.6383 27.3893C19.4654 27.4612 19.28 27.4983 19.0927 27.4983C18.9055 27.4983 18.7201 27.4612 18.5472 27.3893C18.3744 27.3173 18.2174 27.2119 18.0855 27.079L16.921 25.94C16.7862 25.8083 16.6792 25.651 16.6062 25.4772C16.5332 25.3035 16.4957 25.1169 16.496 24.9285C16.4965 24.543 16.6493 24.1734 16.921 23.9L17.55 23.271C17.5804 23.2242 17.5965 23.1696 17.5965 23.1137C17.5965 23.0579 17.5804 23.0033 17.55 22.9565C17.499 22.829 17.414 22.7355 17.295 22.7355H16.428C16.0485 22.7333 15.6853 22.5809 15.4177 22.3118C15.1502 22.0426 15 21.6785 15 21.299V19.6925C15 19.3138 15.1504 18.9506 15.4183 18.6828C15.6861 18.4149 16.0493 18.2645 16.428 18.2645H17.3545C17.4091 18.2599 17.4612 18.2399 17.5049 18.2068C17.5485 18.1737 17.5819 18.1288 17.601 18.0775C17.6343 18.0255 17.652 17.965 17.652 17.9032C17.652 17.8415 17.6343 17.781 17.601 17.729L16.921 17.1C16.7881 16.9681 16.6827 16.8111 16.6107 16.6383C16.5388 16.4654 16.5017 16.28 16.5017 16.0927C16.5017 15.9055 16.5388 15.7201 16.6107 15.5472C16.6827 15.3744 16.7881 15.2174 16.921 15.0855L18.06 13.921C18.1904 13.7868 18.3463 13.6801 18.5186 13.6071C18.6908 13.5342 18.8759 13.4964 19.063 13.496C19.2553 13.4952 19.4459 13.5323 19.6238 13.6052C19.8018 13.6781 19.9636 13.7854 20.1 13.921L20.729 14.55C20.7758 14.5804 20.8304 14.5965 20.8862 14.5965C20.9421 14.5965 20.9967 14.5804 21.0435 14.55C21.171 14.499 21.2645 14.414 21.2645 14.295V13.428C21.2667 13.0485 21.4191 12.6853 21.6882 12.4177C21.9574 12.1502 22.3215 12 22.701 12H24.35C24.7287 12 25.0919 12.1504 25.3597 12.4183C25.6275 12.6861 25.778 13.0493 25.778 13.428V14.3545C25.7826 14.4091 25.8026 14.4612 25.8357 14.5049C25.8688 14.5485 25.9137 14.5819 25.965 14.601C26.017 14.6343 26.0775 14.652 26.1392 14.652C26.201 14.652 26.2615 14.6343 26.3135 14.601L26.9 13.921C27.0319 13.7881 27.1889 13.6827 27.3617 13.6107C27.5346 13.5388 27.72 13.5017 27.9072 13.5017C28.0945 13.5017 28.2799 13.5388 28.4528 13.6107C28.6256 13.6827 28.7826 13.7881 28.9145 13.921L30.079 15.06C30.2134 15.192 30.3202 15.3494 30.3932 15.523C30.4661 15.6967 30.5038 15.8831 30.504 16.0715C30.5081 16.263 30.4725 16.4533 30.3993 16.6303C30.3261 16.8073 30.2171 16.9673 30.079 17.1L29.45 17.729C29.4196 17.7758 29.4035 17.8304 29.4035 17.8862C29.4035 17.9421 29.4196 17.9967 29.45 18.0435C29.501 18.171 29.586 18.2645 29.705 18.2645H30.6315C31.0006 18.282 31.3487 18.441 31.6036 18.7085C31.8584 18.9761 32.0004 19.3315 32 19.701V21.35C32 21.7287 31.8495 22.0919 31.5817 22.3597C31.3139 22.6275 30.9507 22.778 30.572 22.778H29.6455C29.5909 22.7826 29.5388 22.8026 29.4951 22.8357C29.4515 22.8688 29.4181 22.9137 29.399 22.965C29.3686 23.0118 29.3525 23.0664 29.3525 23.1222C29.3525 23.1781 29.3686 23.2327 29.399 23.2795L30.0535 23.934C30.1864 24.0659 30.2918 24.2229 30.3638 24.3957C30.4357 24.5686 30.4728 24.754 30.4728 24.9412C30.4728 25.1285 30.4357 25.3139 30.3638 25.4868C30.2918 25.6596 30.1864 25.8166 30.0535 25.9485L28.94 27.079C28.8096 27.2132 28.6537 27.3199 28.4814 27.3929C28.3092 27.4658 28.1241 27.5036 27.937 27.504C27.5574 27.499 27.1947 27.3466 26.9255 27.079L26.271 26.45C26.2242 26.4196 26.1696 26.4035 26.1137 26.4035C26.0579 26.4035 26.0033 26.4196 25.9565 26.45C25.829 26.501 25.7355 26.586 25.7355 26.705V27.6315C25.718 28.0006 25.559 28.3487 25.2915 28.6036C25.0239 28.8584 24.6685 29.0004 24.299 29V29ZM22.9645 27.3H24.0355V26.6455C24.0391 26.2535 24.159 25.8714 24.3799 25.5476C24.6008 25.2238 24.9129 24.9728 25.2765 24.8265C25.6416 24.6669 26.046 24.6197 26.4381 24.6908C26.8302 24.762 27.1922 24.9483 27.478 25.226L27.937 25.685L28.685 24.937L28.226 24.4695C27.95 24.188 27.7639 23.8309 27.6913 23.4435C27.6186 23.0561 27.6627 22.6558 27.818 22.2935C27.9657 21.9314 28.2172 21.6212 28.5409 21.4019C28.8646 21.1825 29.246 21.0639 29.637 21.061H30.3V19.9645H29.6455C29.2535 19.9609 28.8714 19.841 28.5476 19.6201C28.2238 19.3992 27.9728 19.0871 27.8265 18.7235C27.6669 18.3584 27.6197 17.954 27.6908 17.5619C27.762 17.1698 27.9483 16.8078 28.226 16.522L28.685 16.063L27.937 15.315L27.4695 15.774C27.1837 16.0351 26.8292 16.2091 26.4478 16.2755C26.0664 16.3418 25.674 16.2979 25.3167 16.1487C24.9595 15.9996 24.6523 15.7515 24.4313 15.4336C24.2104 15.1157 24.0848 14.7413 24.0695 14.3545V13.7H22.9645V14.3545C22.9609 14.7465 22.841 15.1286 22.6201 15.4524C22.3992 15.7762 22.0871 16.0272 21.7235 16.1735C21.3584 16.3331 20.954 16.3803 20.5619 16.3092C20.1698 16.238 19.8078 16.0517 19.522 15.774L19.063 15.315L18.315 16.063L18.774 16.5305C19.0351 16.8163 19.2091 17.1708 19.2755 17.5522C19.3418 17.9336 19.2979 18.326 19.1487 18.6833C18.9996 19.0405 18.7515 19.3477 18.4336 19.5687C18.1157 19.7896 17.7413 19.9152 17.3545 19.9305H16.7V21.0015H17.3545C17.7465 21.0051 18.1286 21.125 18.4524 21.3459C18.7762 21.5668 19.0272 21.8789 19.1735 22.2425C19.3331 22.6076 19.3803 23.012 19.3092 23.4041C19.238 23.7962 19.0517 24.1582 18.774 24.444L18.315 24.903L19.063 25.651L19.5305 25.192C19.8163 24.9309 20.1708 24.7569 20.5522 24.6905C20.9336 24.6242 21.326 24.6681 21.6833 24.8173C22.0405 24.9664 22.3477 25.2145 22.5687 25.5324C22.7896 25.8503 22.9152 26.2247 22.9305 26.6115L22.9645 27.3Z" fill="black"/>
<path d="M23.5 23.4749C22.9116 23.4749 22.3364 23.3004 21.8472 22.9735C21.358 22.6466 20.9767 22.182 20.7515 21.6384C20.5263 21.0948 20.4674 20.4966 20.5822 19.9195C20.697 19.3424 20.9803 18.8123 21.3964 18.3963C21.8124 17.9802 22.3425 17.6969 22.9196 17.5821C23.4967 17.4673 24.0949 17.5262 24.6385 17.7514C25.1821 17.9765 25.6468 18.3578 25.9736 18.8471C26.3005 19.3363 26.475 19.9115 26.475 20.4999C26.475 21.2889 26.1616 22.0456 25.6037 22.6035C25.0457 23.1615 24.289 23.4749 23.5 23.4749V23.4749ZM23.5 19.2249C23.2479 19.2249 23.0013 19.2997 22.7917 19.4398C22.582 19.5799 22.4186 19.779 22.3221 20.012C22.2256 20.245 22.2003 20.5013 22.2495 20.7486C22.2987 20.996 22.4202 21.2232 22.5985 21.4015C22.7768 21.5798 23.004 21.7012 23.2513 21.7504C23.4986 21.7996 23.755 21.7744 23.9879 21.6779C24.2209 21.5813 24.4201 21.4179 24.5601 21.2083C24.7002 20.9986 24.775 20.7521 24.775 20.4999C24.775 20.1618 24.6407 19.8375 24.4016 19.5983C24.1625 19.3592 23.8382 19.2249 23.5 19.2249Z" fill="black"/>
</svg>
