<svg width="34" height="31" viewBox="0 0 34 31" fill="none" xmlns="http://www.w3.org/2000/svg">
<path fill-rule="evenodd" clip-rule="evenodd" d="M14 7.26611V3H26.9187V7.26611H14ZM3 9.40332V22.6445H15.3459C15.2734 22.2939 15.2205 21.9355 15.1882 21.5713C15.1637 21.2939 15.1512 21.0132 15.1512 20.7295C15.1512 15.5244 19.3707 11.3052 24.5757 11.3052C24.9945 11.3052 25.4069 11.3325 25.8113 11.3853C26.1879 11.4346 26.5575 11.5059 26.9187 11.5986V9.40332H3ZM29.9187 12.9648V3C29.9187 1.34326 28.5756 0 26.9187 0H3C1.34314 0 0 1.34326 0 3V22.6445C0 24.3013 1.34314 25.6445 3 25.6445H16.5328C18.1892 28.3491 21.1718 30.1538 24.5757 30.1538C29.7805 30.1538 34 25.9346 34 20.7295C34 17.5083 32.384 14.6646 29.9187 12.9648ZM5.34229 5.55566C6.16846 5.55566 6.83813 4.88623 6.83813 4.06006C6.83813 3.23389 6.16846 2.56396 5.34229 2.56396C4.51611 2.56396 3.84631 3.23389 3.84631 4.06006C3.84631 4.88623 4.51611 5.55566 5.34229 5.55566ZM10.6858 4.06006C10.6858 4.88623 10.0161 5.55566 9.18994 5.55566C8.36377 5.55566 7.69397 4.88623 7.69397 4.06006C7.69397 3.23389 8.36377 2.56396 9.18994 2.56396C10.0161 2.56396 10.6858 3.23389 10.6858 4.06006ZM26.0725 16.2412C26.0725 17.1855 25.307 17.9512 24.3628 17.9512C23.4186 17.9512 22.6532 17.1855 22.6532 16.2412C22.6532 15.2974 23.4186 14.5317 24.3628 14.5317C25.307 14.5317 26.0725 15.2974 26.0725 16.2412ZM24.3628 18.3789C23.6547 18.3789 23.0806 18.9531 23.0806 19.6611V26.0723C23.0806 26.7803 23.6547 27.3545 24.3628 27.3545C25.0709 27.3545 25.645 26.7803 25.645 26.0723V19.6611C25.645 18.9531 25.0709 18.3789 24.3628 18.3789Z" fill="black"/>
</svg>
