<svg width="36" height="27" viewBox="0 0 36 27" fill="none" xmlns="http://www.w3.org/2000/svg">
<path fill-rule="evenodd" clip-rule="evenodd" d="M20.2767 1.02059C19.901 0.722595 19.3879 0.665827 18.9561 0.874477C18.5244 1.08313 18.25 1.52041 18.25 1.99996V7.13885L2.00001 7.13879C1.66848 7.13879 1.35054 7.27049 1.11612 7.50491C0.881698 7.73933 0.75 8.05727 0.75 8.38879V9.99997C0.750053 10.6903 1.30968 11.2499 2 11.2499C2.69032 11.2499 3.24995 10.6903 3.25 9.99995V9.6388L19.5 9.63885C19.8315 9.63885 20.1495 9.50716 20.3839 9.27273C20.6183 9.03831 20.75 8.72037 20.75 8.38885V4.58674L31.9884 13.4999L20.75 22.4132V18.6238C20.75 17.9339 20.1909 17.3744 19.5009 17.3738L3.25 17.3619L3.25 13.9999C3.25 13.3095 2.69036 12.7499 2 12.7499C1.30964 12.7499 0.75 13.3096 0.75 13.9999V18.611C0.75 19.301 1.30909 19.8605 1.99908 19.861L18.25 19.8729L18.25 25C18.25 25.4795 18.5244 25.9168 18.9561 26.1254C19.3879 26.3341 19.901 26.2773 20.2767 25.9793L34.7767 14.4793C35.0757 14.2422 35.25 13.8815 35.25 13.4999C35.25 13.1183 35.0757 12.7576 34.7767 12.5205L20.2767 1.02059Z" fill="black"/>
</svg>
