<svg width="34" height="31" viewBox="0 0 34 31" fill="none" xmlns="http://www.w3.org/2000/svg">
<path fill-rule="evenodd" clip-rule="evenodd" d="M18.3842 28.8052C18.0818 28.3555 17.905 27.8125 17.905 27.228C17.905 25.6733 19.1543 24.4136 20.6954 24.4136C21.1818 24.4136 21.6391 24.5391 22.0372 24.7598C24.4484 23.5742 26.385 21.5483 27.4666 19.0527C27.3496 18.1323 27.3746 17.0684 27.569 15.9565C27.7376 14.9927 28.0137 14.106 28.3593 13.3496C27.8037 7.53467 22.9508 3.02344 17.0932 3.02344C11.1138 3.02344 6.18129 7.72461 5.79811 13.7144C6.07033 14.3853 6.28895 15.1431 6.43104 15.9561C6.97414 19.0625 6.19496 21.7979 4.69057 22.0649C3.18629 22.3325 1.5265 20.0312 0.983413 16.9248C0.440322 13.8184 1.2195 11.083 2.72377 10.8154C2.89259 10.7856 3.06337 10.7876 3.23427 10.8198C4.83583 4.60889 10.4336 0.0234375 17.0932 0.0234375C23.7448 0.0234375 29.3372 4.59766 30.9464 10.7974C31.0568 10.7905 31.1669 10.7964 31.2761 10.8159C32.7805 11.0835 33.5597 13.8188 33.0166 16.9253C32.4735 20.0317 30.8137 22.333 29.3093 22.0659C29.2979 22.064 29.2864 22.062 29.2749 22.0596C27.8767 24.3359 25.8688 26.1914 23.481 27.3936C23.396 28.8706 22.1813 30.042 20.6954 30.042C19.7516 30.042 18.9173 29.5693 18.4122 28.8462L18.3023 28.856L18.3842 28.8052Z" fill="black"/>
<path fill-rule="evenodd" clip-rule="evenodd" d="M24.2131 16.7673C24.2466 16.6185 24.1632 16.4682 24.0191 16.4181C23.875 16.3679 23.7163 16.4339 23.6501 16.5713C22.3918 19.1862 19.7354 20.9862 16.6642 20.9862C13.5931 20.9862 10.9368 19.1864 9.6784 16.5716C9.61225 16.4342 9.45349 16.3682 9.30943 16.4184C9.16538 16.4686 9.08189 16.6188 9.11541 16.7676C9.89777 20.241 12.9787 22.8369 16.6642 22.8369C20.3499 22.8369 23.4309 20.2409 24.2131 16.7673ZM16.6642 21.2862C13.9588 21.2862 11.5648 19.9421 10.1027 17.8799C9.83981 17.5092 9.60708 17.1152 9.40808 16.7017C9.40811 16.7019 9.40814 16.702 9.40818 16.7022C10.7142 19.4157 13.4726 21.2865 16.6642 21.2865C19.8559 21.2865 22.6144 19.4156 23.9204 16.7019C23.9204 16.7017 23.9204 16.7016 23.9205 16.7014C23.7215 17.1149 23.4888 17.5089 23.2259 17.8796C21.7638 19.942 19.3697 21.2862 16.6642 21.2862Z" fill="black"/>
</svg>
