<svg width="35" height="33" viewBox="0 0 35 33" fill="none" xmlns="http://www.w3.org/2000/svg">
<path fill-rule="evenodd" clip-rule="evenodd" d="M8.25012 5.5C8.94048 5.5 9.50012 4.94036 9.50012 4.25C9.50012 3.55964 8.94048 3 8.25012 3C7.55977 3 7.00012 3.55964 7.00012 4.25C7.00012 4.94036 7.55977 5.5 8.25012 5.5ZM9.49927 8.31346C11.2369 7.77995 12.5001 6.1625 12.5001 4.25C12.5001 1.90279 10.5973 0 8.25012 0C5.90291 0 4.00012 1.90279 4.00012 4.25C4.00012 6.16187 5.26254 7.77889 6.99927 8.31294V15H1.25C0.559644 15 0 15.5596 0 16.25C0 16.9404 0.559644 17.5 1.25 17.5H16.5002V24.1866C14.7628 24.7202 13.4996 26.3376 13.4996 28.25C13.4996 30.5972 15.4024 32.5 17.7496 32.5C20.0968 32.5 21.9996 30.5972 21.9996 28.25C21.9996 26.338 20.7371 24.721 19.0002 24.187V17.5H33.75C34.4404 17.5 35 16.9404 35 16.25C35 15.5596 34.4404 15 33.75 15H28.4995V8.31354C30.2372 7.7801 31.5006 6.16259 31.5006 4.25C31.5006 1.90279 29.5978 0 27.2506 0C24.9034 0 23.0006 1.90279 23.0006 4.25C23.0006 6.16178 24.2629 7.77873 25.9995 8.31286V15H9.49927V8.31346ZM28.5006 4.25C28.5006 4.94036 27.941 5.5 27.2506 5.5C26.5603 5.5 26.0006 4.94036 26.0006 4.25C26.0006 3.55964 26.5603 3 27.2506 3C27.941 3 28.5006 3.55964 28.5006 4.25ZM17.7496 29.5C18.44 29.5 18.9996 28.9404 18.9996 28.25C18.9996 27.5596 18.44 27 17.7496 27C17.0593 27 16.4996 27.5596 16.4996 28.25C16.4996 28.9404 17.0593 29.5 17.7496 29.5Z" fill="black"/>
</svg>
