<svg width="37" height="36" viewBox="0 0 37 36" fill="none" xmlns="http://www.w3.org/2000/svg">
<path d="M6.75525 5.44959C6.75525 4.08153 7.87454 2.9725 9.25525 2.9725C10.636 2.9725 11.7552 4.08153 11.7552 5.44959C11.7552 5.68834 11.7216 5.91679 11.6596 6.13177C11.4321 6.92104 11.8934 7.74361 12.69 7.96904C13.4866 8.19446 14.3168 7.73737 14.5443 6.94809C14.682 6.47029 14.7552 5.96718 14.7552 5.44959C14.7552 2.43986 12.2928 0 9.25525 0C6.21768 0 3.75525 2.43986 3.75525 5.44959C3.75525 8.03142 5.56729 10.1939 8 10.7566V16.1833H1.5C0.671573 16.1833 0 16.8487 0 17.6696C0 18.4904 0.671573 19.1558 1.5 19.1558H17V25.306C14.6915 25.9529 13 28.0559 13 30.5504C13 33.5601 15.4624 36 18.5 36C19.2797 36 20.025 35.8383 20.7008 35.5456C21.4598 35.2169 21.8062 34.3407 21.4744 33.5885C21.1426 32.8364 20.2583 32.4932 19.4992 32.822C19.1951 32.9537 18.8582 33.0275 18.5 33.0275C17.1193 33.0275 16 31.9185 16 30.5504C16 29.1824 17.1193 28.0733 18.5 28.0733C19.8807 28.0733 21 29.1824 21 30.5504C21 30.7892 20.9663 31.0176 20.9044 31.2326C20.6769 32.0219 21.1382 32.8444 21.9347 33.0699C22.7313 33.2953 23.5615 32.8382 23.789 32.0489C23.9267 31.5711 24 31.068 24 30.5504C24 28.0559 22.3085 25.9529 20 25.306V19.1558H35.5C36.3284 19.1558 37 18.4904 37 17.6696C37 16.8487 36.3284 16.1833 35.5 16.1833H29V10.6936C29.2405 10.6261 29.4745 10.5428 29.7008 10.4448C30.4598 10.1161 30.8062 9.23984 30.4744 8.48771C30.1426 7.73559 29.2583 7.39238 28.4992 7.72113C28.1951 7.85286 27.8582 7.92668 27.5 7.92668C26.1193 7.92668 25 6.81765 25 5.44959C25 4.08153 26.1193 2.9725 27.5 2.9725C28.8807 2.9725 30 4.08153 30 5.44959C30 5.68834 29.9663 5.91679 29.9044 6.13177C29.6769 6.92104 30.1382 7.74361 30.9347 7.96904C31.7313 8.19446 32.5615 7.73737 32.789 6.94809C32.9267 6.47029 33 5.96718 33 5.44959C33 2.43986 30.5376 0 27.5 0C24.4624 0 22 2.43986 22 5.44959C22 7.94407 23.6915 10.0471 26 10.694V16.1833H11V10.6187C11.1551 10.5673 11.3073 10.5092 11.456 10.4448C12.2151 10.1161 12.5615 9.23984 12.2297 8.48771C11.8979 7.73559 11.0136 7.39238 10.2545 7.72113C9.95033 7.85286 9.61344 7.92668 9.25525 7.92668C7.87454 7.92668 6.75525 6.81765 6.75525 5.44959Z" fill="black"/>
</svg>
