<svg width="34" height="41" viewBox="0 0 34 41" fill="none" xmlns="http://www.w3.org/2000/svg">
<path d="M3.50755 0C1.57038 0 0 1.567 0 3.5V37.5C0 39.433 1.57038 41 3.50755 41H25.555C27.4922 41 29.0626 39.433 29.0626 37.5V35.5C29.0626 34.6716 28.3895 34 27.5593 34C26.7291 34 26.0561 34.6716 26.0561 35.5V37.5C26.0561 37.7761 25.8317 38 25.555 38H3.50755C3.23081 38 3.00647 37.7761 3.00647 37.5V3.5C3.00647 3.22386 3.23081 3 3.50755 3H25.555C25.8317 3 26.0561 3.22386 26.0561 3.5V5.5C26.0561 6.32843 26.7291 7 27.5593 7C28.3895 7 29.0626 6.32843 29.0626 5.5V3.5C29.0626 1.567 27.4922 0 25.555 0H3.50755Z" fill="black"/>
<path d="M32.7751 17.8427C34.4083 19.2396 34.4083 21.7607 32.7751 23.1575L23.8291 30.8091C21.5538 32.7551 18.0388 31.1419 18.0388 28.1517V25.5H14.5313C13.7011 25.5 13.028 24.8284 13.028 24C13.028 23.1716 13.7011 22.5 14.5313 22.5H19.5421C20.3371 22.5 20.9879 23.1158 21.0417 23.8955C21.0436 23.9237 21.0448 23.9521 21.0452 23.9807L21.0453 24.0001V28.1517C21.0453 28.5789 21.5474 28.8093 21.8725 28.5313L30.8185 20.8797C31.0519 20.6802 31.0519 20.32 30.8185 20.1205L21.8725 12.4689C21.5474 12.1909 21.0453 12.4214 21.0453 12.8486V17.5C21.0453 18.3284 20.3723 19 19.5421 19L19.5231 18.9999H10.5226C10.2459 18.9999 10.0216 19.2237 10.0216 19.4999V20.5C10.0216 21.3284 9.34855 22 8.51833 22C7.68812 22 7.0151 21.3284 7.0151 20.5V19.4999C7.0151 17.5669 8.58548 15.9999 10.5226 15.9999H18.0388V12.8486C18.0388 9.85832 21.5538 8.24514 23.8291 10.1912L32.7751 17.8427Z" fill="black"/>
</svg>
