<svg width="30" height="25" viewBox="0 0 30 25" fill="none" xmlns="http://www.w3.org/2000/svg">
<path d="M7.68293 0C8.28909 0 8.78049 0.493804 8.78049 1.10294V4.77941C8.78049 5.38855 8.28909 5.88235 7.68293 5.88235C7.07676 5.88235 6.58537 5.38855 6.58537 4.77941V1.10294C6.58537 0.493804 7.07676 0 7.68293 0Z" fill="black"/>
<path d="M2.56098 4.41176C2.35892 4.41176 2.19512 4.57637 2.19512 4.77941V22.4265C2.19512 22.6295 2.35892 22.7941 2.56098 22.7941H27.439C27.6411 22.7941 27.8049 22.6295 27.8049 22.4265V20.9559C27.8049 20.3467 28.2963 19.8529 28.9024 19.8529C29.5086 19.8529 30 20.3467 30 20.9559V22.4265C30 23.8478 28.8534 25 27.439 25H2.56098C1.14659 25 0 23.8478 0 22.4265V4.77941C0 3.35809 1.14659 2.20588 2.56098 2.20588H4.7561C5.36226 2.20588 5.85366 2.69969 5.85366 3.30882C5.85366 3.91796 5.36226 4.41176 4.7561 4.41176H2.56098Z" fill="black"/>
<path d="M9.5122 3.30882C9.5122 2.69969 10.0036 2.20588 10.6098 2.20588H19.3902C19.9964 2.20588 20.4878 2.69969 20.4878 3.30882C20.4878 3.91796 19.9964 4.41176 19.3902 4.41176H10.6098C10.0036 4.41176 9.5122 3.91796 9.5122 3.30882Z" fill="black"/>
<path d="M24.1463 3.30882C24.1463 2.69969 24.6377 2.20588 25.2439 2.20588H27.439C28.8534 2.20588 30 3.35809 30 4.77941V16.5441C30 17.1533 29.5086 17.6471 28.9024 17.6471C28.2963 17.6471 27.8049 17.1533 27.8049 16.5441V4.77941C27.8049 4.57637 27.6411 4.41176 27.439 4.41176H25.2439C24.6377 4.41176 24.1463 3.91796 24.1463 3.30882Z" fill="black"/>
<path d="M23.4146 1.10294C23.4146 0.493804 22.9232 0 22.3171 0C21.7109 0 21.2195 0.493804 21.2195 1.10294V4.77941C21.2195 5.38855 21.7109 5.88235 22.3171 5.88235C22.9232 5.88235 23.4146 5.38855 23.4146 4.77941V1.10294Z" fill="black"/>
<path d="M5.85366 12.1324C5.85366 11.5232 6.34505 11.0294 6.95122 11.0294H9.87805C10.4842 11.0294 10.9756 11.5232 10.9756 12.1324C10.9756 12.7415 10.4842 13.2353 9.87805 13.2353H6.95122C6.34505 13.2353 5.85366 12.7415 5.85366 12.1324Z" fill="black"/>
<path d="M20.122 11.0294C19.5158 11.0294 19.0244 11.5232 19.0244 12.1324C19.0244 12.7415 19.5158 13.2353 20.122 13.2353H23.0488C23.6549 13.2353 24.1463 12.7415 24.1463 12.1324C24.1463 11.5232 23.6549 11.0294 23.0488 11.0294H20.122Z" fill="black"/>
<path d="M12.439 12.1324C12.439 11.5232 12.9304 11.0294 13.5366 11.0294H16.4634C17.0696 11.0294 17.561 11.5232 17.561 12.1324C17.561 12.7415 17.0696 13.2353 16.4634 13.2353H13.5366C12.9304 13.2353 12.439 12.7415 12.439 12.1324Z" fill="black"/>
<path d="M6.95122 14.7059C6.34505 14.7059 5.85366 15.1997 5.85366 15.8088C5.85366 16.418 6.34505 16.9118 6.95122 16.9118H9.87805C10.4842 16.9118 10.9756 16.418 10.9756 15.8088C10.9756 15.1997 10.4842 14.7059 9.87805 14.7059H6.95122Z" fill="black"/>
<path d="M19.0244 15.8088C19.0244 15.1997 19.5158 14.7059 20.122 14.7059H23.0488C23.6549 14.7059 24.1463 15.1997 24.1463 15.8088C24.1463 16.418 23.6549 16.9118 23.0488 16.9118H20.122C19.5158 16.9118 19.0244 16.418 19.0244 15.8088Z" fill="black"/>
<path d="M13.5366 14.7059C12.9304 14.7059 12.439 15.1997 12.439 15.8088C12.439 16.418 12.9304 16.9118 13.5366 16.9118H16.4634C17.0696 16.9118 17.561 16.418 17.561 15.8088C17.561 15.1997 17.0696 14.7059 16.4634 14.7059H13.5366Z" fill="black"/>
</svg>
