<svg width="24" height="30" viewBox="0 0 24 30" fill="none" xmlns="http://www.w3.org/2000/svg">
<path d="M3.88804 3.08929C5.90848 1.10629 8.73888 0 12 0C14.4875 0 16.7258 0.642842 18.5489 1.83353C19.0543 2.16358 19.198 2.8433 18.87 3.35174C18.5419 3.86017 17.8663 4.00478 17.361 3.67474C15.9281 2.73891 14.1116 2.19512 12 2.19512C9.23631 2.19512 6.97581 3.12534 5.41159 4.66059C3.84952 6.19371 2.90917 8.40081 2.90917 11.0975C2.90917 11.4821 2.93207 11.8609 2.97652 12.2329C2.97788 12.2442 2.97905 12.2555 2.98005 12.2669C3.16767 14.3942 4.09041 16.9012 5.36488 19.3326C5.64594 19.8687 5.44176 20.5326 4.90884 20.8154C4.37592 21.0981 3.71606 20.8927 3.43501 20.3566C2.10214 17.8138 1.03576 15.0157 0.808295 12.4779C0.754809 12.0247 0.727359 11.564 0.727359 11.0975C0.727359 7.8673 1.86545 5.07442 3.88804 3.08929Z" fill="black"/>
<path d="M21.4254 6.84493C22.003 6.67227 22.6103 7.00335 22.7819 7.5844C23.1052 8.67925 23.2727 9.85708 23.2727 11.0975C23.2727 11.564 23.2453 12.0247 23.1918 12.4779C22.859 16.1907 20.7232 20.5046 18.4975 23.8254C17.3713 25.5055 16.1868 26.9844 15.1325 28.057C14.6073 28.5912 14.0926 29.0472 13.6154 29.3778C13.1869 29.6745 12.6097 29.9999 12 29.9999C11.5117 29.9999 11.0604 29.7927 10.7184 29.5919C10.3494 29.3751 9.96476 29.0788 9.5794 28.7367C8.80616 28.0502 7.93937 27.0974 7.06659 25.985C6.69329 25.5092 6.77404 24.819 7.24695 24.4435C7.71986 24.0679 8.40585 24.1491 8.77914 24.6249C9.60123 25.6727 10.3786 26.5187 11.023 27.0908C11.3465 27.378 11.614 27.576 11.8186 27.6962C11.9036 27.7462 11.9633 27.7741 12.0002 27.7894C12.0557 27.7658 12.1781 27.7083 12.378 27.5697C12.7024 27.3451 13.1104 26.9924 13.5812 26.5134C14.5189 25.5594 15.6195 24.193 16.6885 22.5981C18.8497 19.3737 20.7414 15.4266 21.02 12.2669L21.0219 12.2476L21.0236 12.2329C21.068 11.8609 21.0909 11.4821 21.0909 11.0975C21.0909 10.0564 20.9504 9.09 20.6904 8.20964C20.5188 7.62858 20.8479 7.01758 21.4254 6.84493Z" fill="black"/>
<path d="M23.585 0.236149C24.0579 0.611755 24.1386 1.30193 23.7653 1.7777L1.94718 29.5825C1.57385 30.0583 0.887861 30.1395 0.414977 29.7638C-0.0579074 29.3882 -0.138612 28.6981 0.234717 28.2223L22.0528 0.417507C22.4261 -0.0582606 23.1121 -0.139458 23.585 0.236149Z" fill="black"/>
<path d="M7.27279 11.3414C7.27279 8.71472 9.38925 6.58535 12 6.58535C12.927 6.58535 13.7887 6.85269 14.5167 7.31448C15.0264 7.63773 15.7 7.48409 16.0213 6.97132C16.3426 6.45854 16.1899 5.7808 15.6803 5.45754C14.6141 4.78132 13.3508 4.39023 12 4.39023C8.18427 4.39023 5.09098 7.50239 5.09098 11.3414C5.09098 13.2441 5.8522 14.97 7.08244 16.2241C7.50566 16.6555 8.19637 16.6601 8.62518 16.2343C9.054 15.8085 9.05853 15.1136 8.63531 14.6822C7.79167 13.8221 7.27279 12.6438 7.27279 11.3414Z" fill="black"/>
<path d="M18.547 13.5671C18.7399 12.9929 18.4334 12.37 17.8626 12.1761C17.2918 11.9821 16.6728 12.2904 16.48 12.8646C16.1191 13.9394 15.3849 14.8445 14.4314 15.4212C13.915 15.7336 13.7481 16.4079 14.0585 16.9274C14.3689 17.4469 15.0392 17.6149 15.5555 17.3026C16.9458 16.4617 18.0183 15.1421 18.547 13.5671Z" fill="black"/>
</svg>
