<svg width="12" height="12" viewBox="0 0 12 12" fill="none" xmlns="http://www.w3.org/2000/svg">
<path d="M1.07817 0.184985C0.831526 -0.0616617 0.431632 -0.0616617 0.184985 0.184985C-0.0616617 0.431632 -0.0616617 0.831526 0.184985 1.07817L3.21208 4.10526H1.57895C1.23014 4.10526 0.947368 4.38803 0.947368 4.73684C0.947368 5.08565 1.23014 5.36842 1.57895 5.36842H4.7364L4.73874 5.36842C4.89974 5.36794 5.06059 5.30628 5.18344 5.18344C5.24399 5.12288 5.28968 5.05309 5.3205 4.9786C5.35115 4.90468 5.36817 4.82368 5.36842 4.73874L5.36842 4.73684V1.57895C5.36842 1.23014 5.08565 0.947368 4.73684 0.947368C4.38803 0.947368 4.10526 1.23014 4.10526 1.57895V3.21208L1.07817 0.184985Z" fill="black"/>
<path d="M7.0214 6.6795C6.94691 6.71032 6.87712 6.75601 6.81656 6.81656C6.69372 6.93941 6.63206 7.10026 6.63158 7.26126C6.63158 7.26189 6.63158 7.26253 6.63158 7.26316V10.4211C6.63158 10.7699 6.91435 11.0526 7.26316 11.0526C7.61197 11.0526 7.89474 10.7699 7.89474 10.4211V8.78792L10.9218 11.815C11.1685 12.0617 11.5684 12.0617 11.815 11.815C12.0617 11.5684 12.0617 11.1685 11.815 10.9218L8.78792 7.89474H10.4211C10.7699 7.89474 11.0526 7.61197 11.0526 7.26316C11.0526 6.91435 10.7699 6.63158 10.4211 6.63158H7.26359C7.26296 6.63158 7.26189 6.63158 7.26126 6.63158C7.17632 6.63183 7.09532 6.64885 7.0214 6.6795Z" fill="black"/>
<path d="M11.815 1.07817C12.0617 0.831526 12.0617 0.431632 11.815 0.184985C11.5684 -0.0616617 11.1685 -0.0616617 10.9218 0.184985L0.184985 10.9218C-0.0616617 11.1685 -0.0616617 11.5684 0.184985 11.815C0.431632 12.0617 0.831526 12.0617 1.07817 11.815L11.815 1.07817Z" fill="black"/>
</svg>
