<svg width="32" height="26" viewBox="0 0 32 26" fill="none" xmlns="http://www.w3.org/2000/svg">
<path d="M13.7674 0C8.62991 0 4.46512 4.15736 4.46512 9.28571C4.46512 9.50578 4.47281 9.7242 4.48795 9.94071C1.81665 11.385 0 14.2082 0 17.4571C0 21.6187 2.97985 25.0832 6.92562 25.8445C7.20406 25.9454 7.50369 26 7.81395 26H11.5349C12.1514 26 12.6512 25.5011 12.6512 24.8857C12.6512 24.2703 12.1514 23.7714 11.5349 23.7714H7.81395C7.76037 23.7714 7.71215 23.7608 7.66908 23.7425C7.59246 23.7101 7.51244 23.6863 7.43051 23.6716C4.47507 23.1414 2.23256 20.5595 2.23256 17.4571C2.23256 14.8351 3.83389 12.5838 6.11797 11.6295C6.59397 11.4306 6.87138 10.932 6.78891 10.4235C6.72895 10.0538 6.69767 9.67381 6.69767 9.28571C6.69767 5.38816 9.86292 2.22857 13.7674 2.22857C17.0036 2.22857 19.7345 4.39992 20.5725 7.36486C20.712 7.85845 21.171 8.19325 21.6845 8.17595C21.7737 8.17295 21.8634 8.17143 21.9535 8.17143C26.269 8.17143 29.7674 11.6636 29.7674 15.9714C29.7674 20.2793 26.269 23.7714 21.9535 23.7714H17.1163V14.2044L18.9316 16.0165C19.3675 16.4516 20.0743 16.4516 20.5103 16.0165C20.9462 15.5813 20.9462 14.8758 20.5103 14.4407L16.7893 10.7264C16.6823 10.6195 16.559 10.5389 16.4273 10.4846C16.2957 10.4301 16.1514 10.4 16 10.4C15.8486 10.4 15.7043 10.4301 15.5727 10.4846C15.441 10.5389 15.3177 10.6195 15.2107 10.7264L11.4897 14.4407C11.0538 14.8758 11.0538 15.5813 11.4897 16.0165C11.9257 16.4516 12.6325 16.4516 13.0684 16.0165L14.8837 14.2044V24.8857C14.8837 25.5011 15.3835 26 16 26H21.9535C27.502 26 32 21.5101 32 15.9714C32 10.6 27.7695 6.21495 22.4531 5.95504C21.112 2.47271 17.7303 0 13.7674 0Z" fill="black"/>
</svg>
