<svg width="35" height="42" viewBox="0 0 35 42" fill="none" xmlns="http://www.w3.org/2000/svg">
<path fill-rule="evenodd" clip-rule="evenodd" d="M16.5 6.07229C16.5 9.42592 13.8137 12.1446 10.5 12.1446C7.18629 12.1446 4.5 9.42592 4.5 6.07229C4.5 2.71866 7.18629 0 10.5 0C13.8137 0 16.5 2.71866 16.5 6.07229ZM13.5 6.07229C13.5 7.74911 12.1569 9.10843 10.5 9.10843C8.84315 9.10843 7.5 7.74911 7.5 6.07229C7.5 4.39547 8.84315 3.03614 10.5 3.03614C12.1569 3.03614 13.5 4.39547 13.5 6.07229Z" fill="black"/>
<path d="M10.5 15.6865C6.35786 15.6865 3 19.0849 3 23.2769V36.4335C3 36.713 3.22386 36.9396 3.5 36.9396H11.5C12.3284 36.9396 13 37.6192 13 38.4576C13 39.296 12.3284 39.9757 11.5 39.9757H3.5C1.567 39.9757 0 38.3898 0 36.4335V23.2769C0 17.4081 4.70101 12.6504 10.5 12.6504C13.7991 12.6504 16.7435 14.192 18.6661 16.5965C19.1872 17.2482 19.0876 18.2041 18.4436 18.7315C17.7996 19.2589 16.8551 19.1581 16.3339 18.5064C14.9565 16.7837 12.8554 15.6865 10.5 15.6865Z" fill="black"/>
<path d="M23.5 21.7588C18.8056 21.7588 15 25.6103 15 30.3612C15 35.1122 18.8056 38.9637 23.5 38.9637C24.7116 38.9637 25.8601 38.7078 26.8992 38.2482C27.6583 37.9124 28.5426 38.263 28.8744 39.0312C29.2062 39.7994 28.8598 40.6944 28.1008 41.0302C26.6901 41.6542 25.133 41.9998 23.5 41.9998C17.1487 41.9998 12 36.789 12 30.3612C12 23.9334 17.1487 18.7227 23.5 18.7227C29.8513 18.7227 35 23.9334 35 30.3612C35 32.3537 34.504 34.2332 33.6289 35.876C33.2358 36.614 32.326 36.8898 31.5968 36.4919C30.8676 36.0941 30.5951 35.1733 30.9882 34.4353C31.6333 33.2242 32 31.8384 32 30.3612C32 25.6103 28.1944 21.7588 23.5 21.7588Z" fill="black"/>
<path d="M23.5 24.7954C24.3284 24.7954 25 25.475 25 26.3135V28.8436H27.5C28.3284 28.8436 29 29.5232 29 30.3616C29 31.2001 28.3284 31.8797 27.5 31.8797H25V34.4098C25 35.2482 24.3284 35.9279 23.5 35.9279C22.6716 35.9279 22 35.2482 22 34.4098V31.8797H19.5C18.6716 31.8797 18 31.2001 18 30.3616C18 29.5232 18.6716 28.8436 19.5 28.8436H22V26.3135C22 25.475 22.6716 24.7954 23.5 24.7954Z" fill="black"/>
</svg>
