<svg width="24" height="31" viewBox="0 0 24 31" fill="none" xmlns="http://www.w3.org/2000/svg">
<path fill-rule="evenodd" clip-rule="evenodd" d="M20 8.21687C20 12.7549 16.4183 16.4337 12 16.4337C7.58172 16.4337 4 12.7549 4 8.21687C4 3.67882 7.58172 0 12 0C16.4183 0 20 3.67882 20 8.21687ZM17.8182 8.21687C17.8182 11.5173 15.2133 14.1928 12 14.1928C8.78671 14.1928 6.18182 11.5173 6.18182 8.21687C6.18182 4.91647 8.78671 2.24096 12 2.24096C15.2133 2.24096 17.8182 4.91647 17.8182 8.21687Z" fill="black"/>
<path d="M8.36364 16.8072C3.74453 16.8072 0 20.6533 0 25.3976V29.8795C0 30.4983 0.488417 31 1.09091 31C1.6934 31 2.18182 30.4983 2.18182 29.8795V25.3976C2.18182 21.8909 4.94951 19.0482 8.36364 19.0482H15.6364C19.0505 19.0482 21.8182 21.8909 21.8182 25.3976V29.8795C21.8182 30.4983 22.3066 31 22.9091 31C23.5116 31 24 30.4983 24 29.8795V25.3976C24 20.6533 20.2555 16.8072 15.6364 16.8072H8.36364Z" fill="black"/>
</svg>
