<svg width="38" height="38" viewBox="0 0 38 38" fill="none" xmlns="http://www.w3.org/2000/svg">
<path d="M8.5 5.5C8.5 6.32843 7.82843 7 7 7C6.17157 7 5.5 6.32843 5.5 5.5C5.5 4.67157 6.17157 4 7 4C7.82843 4 8.5 4.67157 8.5 5.5Z" fill="black"/>
<path d="M11 7C11.8284 7 12.5 6.32843 12.5 5.5C12.5 4.67157 11.8284 4 11 4C10.1716 4 9.5 4.67157 9.5 5.5C9.5 6.32843 10.1716 7 11 7Z" fill="black"/>
<path fill-rule="evenodd" clip-rule="evenodd" d="M0 3.5C0 1.567 1.567 0 3.5 0H31.5C33.433 0 35 1.567 35 3.5V14.5C35 15.3284 34.3284 16 33.5 16C32.6716 16 32 15.3284 32 14.5V11H3V23.5C3 23.7761 3.22386 24 3.5 24H12.5C13.3284 24 14 24.6716 14 25.5C14 26.3284 13.3284 27 12.5 27H3.5C1.567 27 0 25.433 0 23.5V3.5ZM3 8H32V3.5C32 3.22386 31.7761 3 31.5 3H3.5C3.22386 3 3 3.22386 3 3.5V8Z" fill="black"/>
<path d="M26.5 18C21.8056 18 18 21.8056 18 26.5C18 31.1944 21.8056 35 26.5 35C27.7116 35 28.8601 34.7472 29.8992 34.293C30.6583 33.9613 31.5426 34.3076 31.8744 35.0667C32.2062 35.8258 31.8598 36.7101 31.1008 37.0419C29.6901 37.6585 28.133 38 26.5 38C20.1487 38 15 32.8513 15 26.5C15 20.1487 20.1487 15 26.5 15C32.8513 15 38 20.1487 38 26.5C38 28.4687 37.504 30.3259 36.6289 31.9491C36.2358 32.6783 35.326 32.9508 34.5968 32.5577C33.8676 32.1646 33.5951 31.2548 33.9882 30.5256C34.6333 29.3289 35 27.9596 35 26.5C35 21.8056 31.1944 18 26.5 18Z" fill="black"/>
<path d="M26.5 23.5C27.6046 23.5 28.5 22.6046 28.5 21.5C28.5 20.3954 27.6046 19.5 26.5 19.5C25.3954 19.5 24.5 20.3954 24.5 21.5C24.5 22.6046 25.3954 23.5 26.5 23.5Z" fill="black"/>
<path d="M24.5 26.5C24.5 25.3954 25.3954 24.5 26.5 24.5C27.6046 24.5 28.5 25.3954 28.5 26.5V31.5C28.5 32.6046 27.6046 33.5 26.5 33.5C25.3954 33.5 24.5 32.6046 24.5 31.5V26.5Z" fill="black"/>
</svg>
