<svg width="28" height="28" viewBox="0 0 28 28" fill="none" xmlns="http://www.w3.org/2000/svg">
<path d="M2.64865 0C1.18584 0 0 1.18584 0 2.64865V9.45946C0 10.0864 0.508217 10.5946 1.13514 10.5946C1.76205 10.5946 2.27027 10.0864 2.27027 9.45946V3.87559L9.41355 11.0189C9.85685 11.4622 10.5756 11.4622 11.0189 11.0189C11.4622 10.5756 11.4622 9.85685 11.0189 9.41355L3.87559 2.27027H9.45946C10.0864 2.27027 10.5946 1.76205 10.5946 1.13514C10.5946 0.508217 10.0864 0 9.45946 0H2.64865Z" fill="black"/>
<path d="M18.5405 0C17.9136 0 17.4054 0.508217 17.4054 1.13514C17.4054 1.76205 17.9136 2.27027 18.5405 2.27027H24.1244L16.9811 9.41355C16.5378 9.85685 16.5378 10.5756 16.9811 11.0189C17.4244 11.4622 18.1431 11.4622 18.5864 11.0189L25.7297 3.87559V9.45946C25.7297 10.0864 26.2379 10.5946 26.8649 10.5946C27.4918 10.5946 28 10.0864 28 9.45946V2.64865C28 1.18584 26.8142 0 25.3514 0H18.5405Z" fill="black"/>
<path d="M2.27027 18.5405C2.27027 17.9136 1.76205 17.4054 1.13514 17.4054C0.508217 17.4054 0 17.9136 0 18.5405V25.3514C0 26.8142 1.18584 28 2.64865 28H9.45946C10.0864 28 10.5946 27.4918 10.5946 26.8649C10.5946 26.2379 10.0864 25.7297 9.45946 25.7297H3.87559L11.0189 18.5864C11.4622 18.1431 11.4622 17.4244 11.0189 16.9811C10.5756 16.5378 9.85685 16.5378 9.41355 16.9811L2.27027 24.1244V18.5405Z" fill="black"/>
<path d="M28 18.5405C28 17.9136 27.4918 17.4054 26.8649 17.4054C26.2379 17.4054 25.7297 17.9136 25.7297 18.5405V24.1244L18.5864 16.9811C18.1431 16.5378 17.4244 16.5378 16.9811 16.9811C16.5378 17.4244 16.5378 18.1431 16.9811 18.5864L24.1244 25.7297H18.5405C17.9136 25.7297 17.4054 26.2379 17.4054 26.8649C17.4054 27.4918 17.9136 28 18.5405 28H25.3514C26.8142 28 28 26.8142 28 25.3514V18.5405Z" fill="black"/>
</svg>
