<svg width="29" height="29" viewBox="0 0 29 29" fill="none" xmlns="http://www.w3.org/2000/svg">
<path d="M15.1867 1.14474C15.1867 0.512516 15.6966 0 16.3257 0H20.8817C21.5107 0 22.0207 0.512516 22.0207 1.14474V8.77632C22.0207 9.40854 21.5107 9.92105 20.8817 9.92105C20.2526 9.92105 19.7427 9.40854 19.7427 8.77632V2.28947H17.4647V8.77632C17.4647 9.40854 16.9547 9.92105 16.3257 9.92105C15.6966 9.92105 15.1867 9.40854 15.1867 8.77632V1.14474Z" fill="black"/>
<path d="M7.59333 5.72368C7.59333 5.09146 8.10328 4.57895 8.73233 4.57895H13.2883C13.9174 4.57895 14.4273 5.09146 14.4273 5.72368V10.3026C14.4273 10.9349 13.9174 11.4474 13.2883 11.4474C12.6593 11.4474 12.1493 10.9349 12.1493 10.3026V6.86842H9.87133V27.0921C9.87133 27.7243 9.36138 28.2368 8.73233 28.2368H5.695C5.06595 28.2368 4.556 27.7243 4.556 27.0921V14.5H2.278V27.0921C2.278 27.7243 1.76805 28.2368 1.139 28.2368C0.509948 28.2368 0 27.7243 0 27.0921V13.3553C0 12.723 0.509948 12.2105 1.139 12.2105H5.695C6.32405 12.2105 6.834 12.723 6.834 13.3553V25.9474H7.59333V5.72368Z" fill="black"/>
<path d="M16.3276 21.5989L16.3257 21.5874C16.3088 21.4858 16.3 21.2821 16.4555 21.1111C16.6013 20.9507 16.7897 20.9326 16.8898 20.9348H17.5495C17.6656 20.9348 17.7931 20.9677 17.9053 21.054C18.0132 21.1371 18.0733 21.2437 18.1065 21.3349L18.1085 21.3405C18.2212 21.6632 18.4121 21.8911 18.6885 22.0465C18.9755 22.208 19.3824 22.3062 19.94 22.3062C20.5332 22.3062 20.9155 22.2034 21.1444 22.056C21.3891 21.8973 21.4412 21.7565 21.4412 21.6312C21.4412 21.4233 21.3778 21.2933 21.2699 21.1945L21.2643 21.1894C21.1327 21.0648 20.885 20.9298 20.4665 20.816L18.6122 20.309C17.9667 20.1305 17.4313 19.8588 17.0554 19.4648C16.6692 19.06 16.4795 18.556 16.4795 17.9839C16.4795 17.3068 16.7657 16.7393 17.3006 16.3099C17.7347 15.9588 18.2798 15.7491 18.9113 15.6574V15.2857C18.9113 15.1706 18.9446 15.0034 19.087 14.8729C19.2214 14.7497 19.3788 14.7285 19.4753 14.7285H20.2137C20.3154 14.7285 20.4686 14.753 20.5994 14.8729C20.7334 14.9957 20.7713 15.1516 20.7771 15.2619L20.7777 15.2738V15.6921C21.3406 15.8095 21.8312 16.024 22.2337 16.3498C22.7328 16.751 23.0558 17.2781 23.1983 17.913L23.2012 17.9255L23.2033 17.9383C23.2207 18.0431 23.2268 18.2402 23.0796 18.4089C22.9359 18.5735 22.7456 18.5959 22.6455 18.5959H21.9794C21.858 18.5959 21.7275 18.5595 21.6152 18.4687C21.5087 18.3826 21.4512 18.2741 21.4201 18.1841C21.3039 17.8513 21.1185 17.6243 20.8662 17.4723C20.6058 17.3155 20.2403 17.2194 19.7387 17.2194C19.2019 17.2194 18.8467 17.321 18.6228 17.4707C18.3988 17.6198 18.3407 17.7608 18.3407 17.9044C18.3407 18.1189 18.4045 18.2434 18.5025 18.3322C18.6415 18.4545 18.9004 18.5894 19.3288 18.7105L21.1797 19.2215C21.8224 19.3968 22.3554 19.6669 22.73 20.0618C23.1148 20.4674 23.3025 20.9731 23.3025 21.5467C23.3025 22.23 23.004 22.7984 22.4544 23.2257C22.0055 23.5746 21.438 23.7826 20.7777 23.8742V24.2399C20.7777 24.3565 20.7438 24.5177 20.6101 24.6464C20.4833 24.7684 20.3324 24.7972 20.2344 24.8017L20.2137 24.8026L19.4753 24.8022C19.3683 24.8022 19.212 24.7745 19.0815 24.6489C18.9515 24.5238 18.9171 24.3688 18.9119 24.2627L18.9113 24.2513V23.8526C18.297 23.7488 17.7646 23.5396 17.3337 23.2066C16.8101 22.8019 16.4732 22.2636 16.3301 21.6104L16.3276 21.5989Z" fill="black"/>
<path d="M13.054 19.8421C13.054 16.0488 16.1137 12.9737 19.888 12.9737C23.6623 12.9737 26.722 16.0488 26.722 19.8421C26.722 21.0214 26.4272 22.128 25.9085 23.095C25.61 23.6515 25.8169 24.3459 26.3706 24.6459C26.9243 24.9459 27.6152 24.7379 27.9137 24.1814C28.607 22.8888 29 21.4099 29 19.8421C29 14.7843 24.9204 10.6842 19.888 10.6842C14.8556 10.6842 10.776 14.7843 10.776 19.8421C10.776 24.8999 14.8556 29 19.888 29C21.182 29 22.4157 28.7281 23.5334 28.2371C24.1098 27.9839 24.3728 27.309 24.1209 26.7297C23.8689 26.1504 23.1974 25.886 22.621 26.1392C21.7855 26.5063 20.862 26.7105 19.888 26.7105C16.1137 26.7105 13.054 23.6354 13.054 19.8421Z" fill="black"/>
</svg>
