<svg width="28" height="27" viewBox="0 0 28 27" fill="none" xmlns="http://www.w3.org/2000/svg">
<path d="M9.20548 0C7.72263 0 6.52055 1.15915 6.52055 2.58904V5.54795C6.52055 6.16075 7.03573 6.65753 7.67123 6.65753C8.30674 6.65753 8.82192 6.16075 8.82192 5.54795V2.58904C8.82192 2.38477 8.99364 2.21918 9.20548 2.21918H25.3151C25.5269 2.21918 25.6986 2.38477 25.6986 2.58904V18.1233C25.6986 18.3276 25.5269 18.4932 25.3151 18.4932H22.2466C21.6111 18.4932 21.0959 18.9899 21.0959 19.6027C21.0959 20.2155 21.6111 20.7123 22.2466 20.7123H25.3151C26.7979 20.7123 28 19.5532 28 18.1233V2.58904C28 1.15915 26.7979 0 25.3151 0H9.20548Z" fill="black"/>
<path fill-rule="evenodd" clip-rule="evenodd" d="M0 9.24658C0 8.4295 0.686906 7.76712 1.53425 7.76712H18.411C19.2583 7.76712 19.9452 8.4295 19.9452 9.24658V25.5205C19.9452 26.3376 19.2583 27 18.411 27H1.53425C0.686906 27 0 26.3376 0 25.5205V9.24658ZM2.30137 24.7808V9.9863H17.6438V24.7808H2.30137Z" fill="black"/>
</svg>
