<svg width="35" height="41" viewBox="0 0 35 41" fill="none" xmlns="http://www.w3.org/2000/svg">
<path fill-rule="evenodd" clip-rule="evenodd" d="M29.4532 1.10557L31.3348 4.85574C31.8268 5.60879 32.1126 6.50781 32.1126 7.47335C32.1126 8.84666 31.5344 10.0854 30.6073 10.961V17C30.6073 17.8284 29.9333 18.5 29.102 18.5C28.2707 18.5 27.5967 17.8284 27.5967 17V12.2683C27.4957 12.2746 27.3939 12.2778 27.2913 12.2778C26.5074 12.2778 25.7672 12.0913 25.1129 11.7605C24.5031 11.4522 23.9678 11.0184 23.5414 10.4934C23.115 11.0184 22.5798 11.4522 21.97 11.7605C21.3157 12.0913 20.5754 12.2778 19.7915 12.2778C19.0075 12.2778 18.2672 12.0913 17.6129 11.7604C17.0031 11.4521 16.468 11.0184 16.0416 10.4934C15.6153 11.0184 15.0801 11.4521 14.4704 11.7604C13.816 12.0913 13.0757 12.2778 12.2918 12.2778C11.483 12.2778 10.7208 12.0793 10.0515 11.7287C9.47419 11.4263 8.96596 11.0106 8.55653 10.5113C8.14711 11.0106 7.63888 11.4263 7.06158 11.7287C6.39222 12.0793 5.63002 12.2778 4.8213 12.2778C4.7187 12.2778 4.61684 12.2746 4.51583 12.2683V21C4.51583 21.2761 4.74047 21.5 5.01759 21.5H7.52638C8.35772 21.5 9.03165 22.1716 9.03165 23C9.03165 23.8284 8.35772 24.5 7.52638 24.5H5.01759C3.07779 24.5 1.50528 22.933 1.50528 21V10.9609C0.578213 10.0854 0 8.84664 0 7.47335C0 7.04711 0.0557017 6.63383 0.160247 6.24036C0.191228 6.04121 0.253818 5.84146 0.351522 5.64673L0.415564 5.5191C0.473461 5.38968 0.536931 5.26329 0.605671 5.14022L2.63009 1.10557C2.97006 0.428003 3.66503 0 4.42523 0H27.658C28.4182 0 29.1132 0.428005 29.4532 1.10557ZM27.0378 3L28.7185 6.34969L28.8118 6.49241C28.9952 6.77326 29.102 7.1063 29.102 7.47335C29.102 8.46989 28.2913 9.27775 27.2913 9.27775C26.7237 9.27775 26.2186 9.02104 25.8817 8.60622L23.5414 5.72423L21.2011 8.60623C20.8642 9.02104 20.3591 9.27775 19.7915 9.27775C19.2239 9.27775 18.7188 9.02105 18.3819 8.60624L16.0416 5.72433L13.7013 8.60624C13.3645 9.02105 12.8593 9.27775 12.2918 9.27775C11.7272 9.27775 11.2246 9.02387 10.8877 8.61303L8.55653 5.77027L6.22534 8.61303C5.88844 9.02386 5.38582 9.27775 4.8213 9.27775C3.82125 9.27775 3.01055 8.46989 3.01055 7.47335C3.01055 7.30857 3.03196 7.15333 3.07052 7.00819L3.11113 6.85507L3.1381 6.8013L3.16526 6.74061C3.1868 6.69246 3.21048 6.64529 3.23622 6.5992L3.26861 6.54122L5.04544 3H27.0378Z" fill="black"/>
<path fill-rule="evenodd" clip-rule="evenodd" d="M22.5176 32C25.0117 32 27.0335 29.9853 27.0335 27.5C27.0335 25.0147 25.0117 23 22.5176 23C20.0236 23 18.0018 25.0147 18.0018 27.5C18.0018 29.9853 20.0236 32 22.5176 32ZM22.5176 29C23.349 29 24.0229 28.3284 24.0229 27.5C24.0229 26.6716 23.349 26 22.5176 26C21.6863 26 21.0124 26.6716 21.0124 27.5C21.0124 28.3284 21.6863 29 22.5176 29Z" fill="black"/>
<path fill-rule="evenodd" clip-rule="evenodd" d="M22.0063 14C20.1622 14 18.6322 15.4211 18.5027 17.2542L18.3838 18.9371C17.9657 19.138 17.5645 19.3683 17.183 19.6254L15.6545 18.8772C13.9953 18.0651 11.9884 18.6735 11.0642 20.2687L10.5295 21.1915C9.60748 22.7829 10.0775 24.8139 11.6059 25.8422L13.0106 26.7874C12.9931 27.0226 12.9842 27.2603 12.9842 27.5C12.9842 27.7239 12.992 27.946 13.0073 28.1661L11.592 29.1116C10.0566 30.1373 9.58186 32.1735 10.5061 33.7687L11.0408 34.6915C11.9628 36.2829 13.9629 36.8928 15.6207 36.088L17.1443 35.3484C17.5244 35.6073 17.9243 35.8395 18.3412 36.0423L18.4552 37.7343C18.579 39.5722 20.1111 41 21.9596 41H23.0289C24.873 41 26.4031 39.5789 26.5326 37.7458L26.6514 36.0629C27.0696 35.8621 27.4708 35.6317 27.8523 35.3746L29.3808 36.1228C31.04 36.9349 33.0469 36.3265 33.9711 34.7313L34.5058 33.8085C35.4278 32.2171 34.9578 30.1861 33.4294 29.1578L32.0246 28.2126C32.0421 27.9774 32.0511 27.7397 32.0511 27.5C32.0511 27.2762 32.0433 27.0543 32.028 26.8343L33.4432 25.8889C34.9786 24.8631 35.4533 22.827 34.529 21.2318L33.9944 20.309C33.0724 18.7176 31.0722 18.1077 29.4144 18.9125L27.8913 19.6519C27.5111 19.3929 27.1111 19.1606 26.694 18.9577L26.58 17.2657C26.4563 15.4278 24.9241 14 23.0756 14H22.0063ZM29.0087 26.8544C28.9604 26.3655 28.8576 25.8925 28.7066 25.4415L31.7667 23.3971C31.986 23.2506 32.0539 22.9597 31.9218 22.7318L31.3872 21.809C31.2555 21.5816 30.9697 21.4945 30.7329 21.6095L27.4235 23.216C27.0306 22.7696 26.5773 22.3772 26.0763 22.0516L26.0357 22.0255C25.7172 21.8218 25.3797 21.645 25.0264 21.4982C24.6425 21.3386 24.2399 21.2146 23.823 21.1302L23.5762 17.4665C23.5586 17.204 23.3397 17 23.0756 17H22.0063C21.7429 17 21.5243 17.203 21.5058 17.4649L21.2474 21.1232C20.8019 21.2108 20.3727 21.3436 19.9648 21.5167C19.7023 21.628 19.4485 21.7561 19.205 21.8994C18.6161 22.246 18.0866 22.6823 17.6355 23.1893L14.3272 21.5699C14.0901 21.4539 13.8034 21.5408 13.6714 21.7687L13.1367 22.6915C13.005 22.9188 13.0722 23.209 13.2905 23.3559L16.3401 25.4077C16.2841 25.5718 16.2345 25.7389 16.1917 25.9087C16.0631 26.4179 15.9948 26.951 15.9948 27.5C15.9948 27.7179 16.0055 27.9332 16.0265 28.1456C16.0749 28.6346 16.1777 29.1077 16.3288 29.5589L13.2685 31.6034C13.0491 31.7499 12.9813 32.0408 13.1133 32.2687L13.648 33.1915C13.7797 33.4188 14.0654 33.506 14.3023 33.391L17.6121 31.7843C17.7316 31.9201 17.8568 32.0509 17.9872 32.1764C18.0454 32.2324 18.1046 32.2873 18.1648 32.3411C18.7057 32.8244 19.3281 33.2189 20.0088 33.5018C20.3928 33.6614 20.7953 33.7854 21.2123 33.8698L21.459 37.5335C21.4767 37.796 21.6955 38 21.9596 38H23.0289C23.2924 38 23.5109 37.797 23.5294 37.5351L23.7879 33.8768C24.4824 33.7402 25.1374 33.4937 25.7338 33.1563L25.752 33.1459C25.8621 33.0831 25.9703 33.0172 26.0763 32.9484C26.5672 32.6293 27.0124 32.2461 27.3998 31.8107L30.7081 33.4301C30.9452 33.5461 31.2319 33.4592 31.3639 33.2313L31.8985 32.3085C32.0303 32.0812 31.9631 31.791 31.7448 31.6441L28.6952 29.5923C28.8524 29.1311 28.9591 28.6467 29.0087 28.1456L29.0121 28.1105C29.0309 27.9095 29.0405 27.7059 29.0405 27.5C29.0405 27.2821 29.0297 27.0668 29.0087 26.8544Z" fill="black"/>
</svg>
