<svg width="28" height="29" viewBox="0 0 28 29" fill="none" xmlns="http://www.w3.org/2000/svg">
<path d="M12.8637 2.72244C12.8371 3.33081 12.3396 3.81579 11.7297 3.81579H1.13514C0.508217 3.81579 0 3.30327 0 2.67105C0 2.03883 0.508217 1.52631 1.13514 1.52631H10.9095C10.9645 1.42603 11.0292 1.32351 11.1054 1.22105C11.6476 0.492049 12.5879 0 14 0C15.4121 0 16.3524 0.492049 16.8946 1.22105C16.9708 1.32351 17.0355 1.42603 17.0905 1.52631H26.8649C27.4918 1.52631 28 2.03883 28 2.67105C28 3.30327 27.4918 3.81579 26.8649 3.81579H16.2703C15.6604 3.81579 15.1629 3.33082 15.1363 2.72245L15.1336 2.7102C15.1263 2.68111 15.1107 2.63824 15.0784 2.59474C15.0506 2.55736 14.8518 2.28947 14 2.28947C13.1482 2.28947 12.95 2.55656 12.9222 2.59393C12.8899 2.63744 12.8737 2.68111 12.8664 2.7102L12.8637 2.72244Z" fill="black"/>
<path d="M1.85139 5.34285C2.47791 5.32028 3.00394 5.81418 3.02632 6.44599L3.73095 26.3426C3.73822 26.5479 3.90537 26.7105 4.10909 26.7105H23.8909C24.0947 26.7105 24.2618 26.5479 24.2691 26.3426L24.9737 6.446C24.9961 5.81418 25.5221 5.32028 26.1486 5.34285C26.7752 5.36541 27.2649 5.89589 27.2425 6.52771L26.5379 26.4243C26.487 27.8614 25.317 29 23.8909 29H4.10909C2.68307 29 1.51302 27.8614 1.46213 26.4243L0.757494 6.52771C0.735118 5.89589 1.22487 5.36541 1.85139 5.34285Z" fill="black"/>
<path d="M15.1351 11.0658C15.1351 10.4336 14.6269 9.92105 14 9.92105C13.3731 9.92105 12.8649 10.4336 12.8649 11.0658V20.9868C12.8649 21.6191 13.3731 22.1316 14 22.1316C14.6269 22.1316 15.1351 21.6191 15.1351 20.9868V11.0658Z" fill="black"/>
<path d="M8.7027 9.92105C9.32962 9.92105 9.83784 10.4336 9.83784 11.0658V20.9868C9.83784 21.6191 9.32962 22.1316 8.7027 22.1316C8.07578 22.1316 7.56757 21.6191 7.56757 20.9868V11.0658C7.56757 10.4336 8.07578 9.92105 8.7027 9.92105Z" fill="black"/>
<path d="M20.4324 11.0658C20.4324 10.4336 19.9242 9.92105 19.2973 9.92105C18.6704 9.92105 18.1622 10.4336 18.1622 11.0658V20.9868C18.1622 21.6191 18.6704 22.1316 19.2973 22.1316C19.9242 22.1316 20.4324 21.6191 20.4324 20.9868V11.0658Z" fill="black"/>
</svg>
