<svg width="10" height="14" viewBox="0 0 10 14" fill="none" xmlns="http://www.w3.org/2000/svg">
<path d="M1.25 3.66667C1.25 1.64162 2.78902 0 4.6875 0H5.3125C7.21098 0 8.75 1.64162 8.75 3.66667C8.75 4.03486 8.47018 4.33333 8.125 4.33333C7.77982 4.33333 7.5 4.03486 7.5 3.66667C7.5 2.378 6.52062 1.33333 5.3125 1.33333H4.6875C3.47938 1.33333 2.5 2.378 2.5 3.66667C2.5 4.03486 2.22018 4.33333 1.875 4.33333C1.52982 4.33333 1.25 4.03486 1.25 3.66667Z" fill="black"/>
<path d="M0 6.66667C0 5.93029 0.559644 5.33333 1.25 5.33333H8.75C9.44036 5.33333 10 5.93029 10 6.66667V9.33333C10 9.70152 9.72018 10 9.375 10C9.02982 10 8.75 9.70152 8.75 9.33333V6.66667H1.25V12.6667H8.75V11.8667C8.75 11.4985 9.02982 11.2 9.375 11.2C9.72018 11.2 10 11.4985 10 11.8667V12.6667C10 13.403 9.44036 14 8.75 14H1.25C0.559644 14 0 13.403 0 12.6667V6.66667Z" fill="black"/>
<path d="M5.625 9.33333C5.625 8.96514 5.34518 8.66667 5 8.66667C4.65482 8.66667 4.375 8.96514 4.375 9.33333V10.3333C4.375 10.7015 4.65482 11 5 11C5.34518 11 5.625 10.7015 5.625 10.3333V9.33333Z" fill="black"/>
</svg>
