<svg width="42" height="40" viewBox="0 0 42 40" fill="none" xmlns="http://www.w3.org/2000/svg">
<path d="M1.81949 15.0712C1.7964 15.0762 1.77339 15.0817 1.75046 15.0877C0.136156 15.5112 -0.471191 18.4173 0.393911 21.5786C1.25901 24.7398 3.26897 26.9592 4.88327 26.5357C6.49757 26.1122 7.10492 23.2061 6.23982 20.0448C5.86645 18.6804 5.27982 17.4915 4.60378 16.6147C5.91938 8.49422 12.7589 2.96296 21.0186 2.96296C29.2512 2.96296 36.0729 8.45787 37.4203 16.5346C36.7341 17.4143 36.138 18.6152 35.7602 19.9958C35.0306 22.662 35.3483 25.1467 36.4342 26.1136C34.6767 30.6431 31.1729 34.2051 26.8443 35.9103C26.3914 34.8327 25.3086 34.0741 24.0447 34.0741C22.3735 34.0741 21.0186 35.4006 21.0186 37.037C21.0186 38.6734 22.3735 40 24.0447 40C24.7766 40 25.4479 39.7456 25.9712 39.3221C32.7997 37.4787 38.1334 31.9415 39.9841 24.9413C40.6542 24.0664 41.2353 22.8845 41.6061 21.5295C42.4712 18.3683 41.8638 15.4622 40.2495 15.0387L40.2084 15.0285C38.2322 6.08462 30.3827 0 21.0186 0C11.6397 0 3.78005 6.10401 1.81949 15.0712Z" fill="black"/>
<path d="M13.1576 24.5918C12.823 23.8421 11.9311 23.4998 11.1653 23.8274C10.3996 24.155 10.0501 25.0284 10.3846 25.7781C12.1733 29.7865 16.2596 32.5924 21.0187 32.5924C25.7777 32.5924 29.8641 29.7865 31.6527 25.7781C31.9873 25.0284 31.6377 24.155 30.872 23.8274C30.1063 23.4998 29.2143 23.8421 28.8798 24.5918C27.5553 27.5599 24.5321 29.6294 21.0187 29.6294C17.5052 29.6294 14.482 27.5599 13.1576 24.5918Z" fill="black"/>
</svg>
