<svg width="11" height="14" viewBox="0 0 11 14" fill="none" xmlns="http://www.w3.org/2000/svg">
<path d="M0.542067 0.0118959C0.903749 -0.0569954 1.2528 0.180356 1.32169 0.542036L2.55179 7.00001H8.65257C8.66239 6.99979 8.67218 6.9998 8.68194 7.00001H10.3333C10.7015 7.00001 11 7.29848 11 7.66667C11 8.03485 10.7015 8.33332 10.3333 8.33332H9.50841L10.6489 13.1805C10.7333 13.5389 10.5111 13.8978 10.1527 13.9821C9.7943 14.0665 9.4354 13.8443 9.35107 13.4859L8.13869 8.33332H2.52811L1.31574 13.4859C1.23141 13.8443 0.872513 14.0664 0.514116 13.9821C0.155719 13.8978 -0.0664568 13.5389 0.0178719 13.1805L1.3187 7.65202L0.0119244 0.791513C-0.0569674 0.429834 0.180386 0.0807872 0.542067 0.0118959Z" fill="black"/>
</svg>
