<svg width="28" height="32" viewBox="0 0 28 32" fill="none" xmlns="http://www.w3.org/2000/svg">
<path fill-rule="evenodd" clip-rule="evenodd" d="M22.4136 8.232C23.0137 8.07119 23.3699 7.45431 23.2091 6.85416L21.8365 1.73157C21.6757 1.13142 21.0588 0.775264 20.4586 0.936074C19.8585 1.09688 19.5023 1.71376 19.6631 2.31391L20.235 4.44805C18.3801 3.44498 16.256 2.87512 14 2.87512C6.75126 2.87512 0.875 8.75138 0.875 16.0001C0.875 18.3889 1.51418 20.6318 2.63158 22.5634C2.94269 23.1013 3.63088 23.285 4.1687 22.9739C4.70652 22.6628 4.8903 21.9746 4.57919 21.4368C3.65456 19.8384 3.125 17.9828 3.125 16.0001C3.125 9.99403 7.9939 5.12512 14 5.12512C16.0397 5.12512 17.9471 5.6859 19.578 6.66243L16.7086 7.43126C16.1085 7.59207 15.7523 8.20895 15.9131 8.8091C16.0739 9.40925 16.6908 9.76541 17.291 9.6046L22.4136 8.232ZM23.8313 9.02632C24.3691 8.7152 25.0573 8.89899 25.3684 9.4368C26.4858 11.3685 27.125 13.6114 27.125 16.0001C27.125 23.2489 21.2487 29.1251 14 29.1251C11.8154 29.1251 9.75433 28.5907 7.94173 27.646L8.52729 29.8314C8.6881 30.4315 8.33194 31.0484 7.73179 31.2092C7.13165 31.37 6.51477 31.0138 6.35396 30.4137L5.01004 25.3981C4.8677 25.0207 4.93359 24.5791 5.21907 24.2557C5.38417 24.0686 5.59762 23.9495 5.82412 23.9006L10.8995 22.5407C11.4996 22.3799 12.1165 22.736 12.2773 23.3362C12.4381 23.9363 12.0819 24.5532 11.4818 24.714L8.65263 25.4721C10.2315 26.3655 12.0556 26.8751 14 26.8751C20.0061 26.8751 24.875 22.0062 24.875 16.0001C24.875 14.0174 24.3454 12.1619 23.4208 10.5634C23.1097 10.0256 23.2935 9.33743 23.8313 9.02632Z" fill="black"/>
</svg>
