<svg width="35" height="41" viewBox="0 0 35 41" fill="none" xmlns="http://www.w3.org/2000/svg">
<path fill-rule="evenodd" clip-rule="evenodd" d="M10.5369 12C13.8623 12 16.558 9.31371 16.558 6C16.558 2.68629 13.8623 0 10.5369 0C7.21161 0 4.51587 2.68629 4.51587 6C4.51587 9.31371 7.21161 12 10.5369 12ZM10.5369 9C12.1996 9 13.5475 7.65685 13.5475 6C13.5475 4.34315 12.1996 3 10.5369 3C8.87429 3 7.52642 4.34315 7.52642 6C7.52642 7.65685 8.87429 9 10.5369 9Z" fill="black"/>
<path d="M3.01055 23C3.01055 18.8579 6.38023 15.5 10.5369 15.5C12.2706 15.5 13.8636 16.0823 15.1356 17.0622C15.7933 17.569 16.7387 17.4484 17.2471 16.793C17.7556 16.1376 17.6347 15.1955 16.977 14.6888C15.1963 13.317 12.9603 12.5 10.5369 12.5C4.71754 12.5 0 17.201 0 23V36C0 37.933 1.57252 39.5 3.51231 39.5H13.0457C13.8771 39.5 14.551 38.8284 14.551 38C14.551 37.1716 13.8771 36.5 13.0457 36.5H3.51231C3.2352 36.5 3.01055 36.2761 3.01055 36V23Z" fill="black"/>
<path fill-rule="evenodd" clip-rule="evenodd" d="M22.5176 32C25.0117 32 27.0335 29.9853 27.0335 27.5C27.0335 25.0147 25.0117 23 22.5176 23C20.0236 23 18.0018 25.0147 18.0018 27.5C18.0018 29.9853 20.0236 32 22.5176 32ZM22.5176 29C23.349 29 24.0229 28.3284 24.0229 27.5C24.0229 26.6716 23.349 26 22.5176 26C21.6863 26 21.0124 26.6716 21.0124 27.5C21.0124 28.3284 21.6863 29 22.5176 29Z" fill="black"/>
<path fill-rule="evenodd" clip-rule="evenodd" d="M18.5027 17.2542C18.6322 15.4211 20.1622 14 22.0063 14H23.0756C24.9241 14 26.4563 15.4278 26.58 17.2657L26.694 18.9577C27.1111 19.1606 27.5111 19.3929 27.8913 19.6519L29.4144 18.9125C31.0722 18.1077 33.0724 18.7176 33.9944 20.309L34.529 21.2318C35.4533 22.827 34.9786 24.8631 33.4432 25.8889L32.028 26.8343C32.0433 27.0543 32.0511 27.2762 32.0511 27.5C32.0511 27.7397 32.0421 27.9774 32.0246 28.2126L33.4294 29.1578C34.9578 30.1861 35.4278 32.2171 34.5058 33.8085L33.9711 34.7313C33.0469 36.3265 31.04 36.9349 29.3808 36.1228L27.8523 35.3746C27.4708 35.6317 27.0696 35.8621 26.6514 36.0629L26.5326 37.7458C26.4031 39.5789 24.873 41 23.0289 41H21.9596C20.1111 41 18.579 39.5722 18.4552 37.7343L18.3412 36.0423C17.9243 35.8395 17.5244 35.6073 17.1443 35.3484L15.6207 36.088C13.9629 36.8928 11.9628 36.2829 11.0408 34.6915L10.5061 33.7687C9.58186 32.1735 10.0566 30.1373 11.592 29.1116L13.0073 28.1661C12.992 27.946 12.9842 27.7239 12.9842 27.5C12.9842 27.2603 12.9931 27.0226 13.0106 26.7874L11.6059 25.8422C10.0775 24.8139 9.60748 22.7829 10.5295 21.1915L11.0642 20.2687C11.9884 18.6735 13.9953 18.0651 15.6545 18.8772L17.183 19.6254C17.5645 19.3683 17.9657 19.138 18.3838 18.9371L18.5027 17.2542ZM28.7066 25.4415C28.8576 25.8925 28.9604 26.3655 29.0087 26.8544C29.0297 27.0668 29.0405 27.2821 29.0405 27.5C29.0405 27.7059 29.0309 27.9095 29.0121 28.1105L29.0087 28.1456C28.9591 28.6467 28.8524 29.1311 28.6952 29.5923L31.7448 31.6441C31.9631 31.791 32.0303 32.0812 31.8985 32.3085L31.3639 33.2313C31.2319 33.4592 30.9452 33.5461 30.7081 33.4301L27.3998 31.8107C27.0124 32.2461 26.5672 32.6293 26.0763 32.9484C25.9703 33.0172 25.8621 33.0831 25.752 33.1459L25.7338 33.1563C25.1374 33.4937 24.4824 33.7402 23.7879 33.8768L23.5294 37.5351C23.5109 37.797 23.2924 38 23.0289 38H21.9596C21.6955 38 21.4767 37.796 21.459 37.5335L21.2123 33.8698C20.7953 33.7854 20.3928 33.6614 20.0088 33.5018C19.3281 33.2189 18.7057 32.8244 18.1648 32.3411C18.1046 32.2873 18.0454 32.2324 17.9872 32.1764C17.8568 32.0509 17.7316 31.9201 17.6121 31.7843L14.3023 33.391C14.0654 33.506 13.7797 33.4188 13.648 33.1915L13.1133 32.2687C12.9813 32.0408 13.0491 31.7499 13.2685 31.6034L16.3288 29.5589C16.1777 29.1077 16.0749 28.6346 16.0265 28.1456C16.0055 27.9332 15.9948 27.7179 15.9948 27.5C15.9948 26.951 16.0631 26.4179 16.1917 25.9087C16.2345 25.7389 16.2841 25.5718 16.3401 25.4077L13.2905 23.3559C13.0722 23.209 13.005 22.9188 13.1367 22.6915L13.6714 21.7687C13.8034 21.5408 14.0901 21.4539 14.3272 21.5699L17.6355 23.1893C18.0866 22.6823 18.6161 22.246 19.205 21.8994C19.4485 21.7561 19.7023 21.628 19.9648 21.5167C20.3727 21.3436 20.8019 21.2108 21.2474 21.1232L21.5058 17.4649C21.5243 17.203 21.7429 17 22.0063 17H23.0756C23.3397 17 23.5586 17.204 23.5762 17.4665L23.823 21.1302C24.2399 21.2146 24.6425 21.3386 25.0264 21.4982C25.3797 21.645 25.7172 21.8218 26.0357 22.0255L26.0763 22.0516C26.5773 22.3772 27.0306 22.7696 27.4235 23.216L30.7329 21.6095C30.9697 21.4945 31.2555 21.5816 31.3872 21.809L31.9218 22.7318C32.0539 22.9597 31.986 23.2506 31.7667 23.3971L28.7066 25.4415Z" fill="black"/>
</svg>
