<svg width="30" height="30" viewBox="0 0 30 30" fill="none" xmlns="http://www.w3.org/2000/svg">
<path d="M15 2.25C7.55506 2.25 2.25 7.55506 2.25 15C2.25 22.4449 7.55506 27.75 15 27.75C16.4483 27.75 17.8088 27.5493 19.0604 27.1765C19.6559 26.9991 20.2824 27.3381 20.4598 27.9335C20.6371 28.529 20.2982 29.1555 19.7027 29.3329C18.2343 29.7703 16.6569 30 15 30C6.31242 30 0 23.6876 0 15C0 6.31242 6.31242 0 15 0C23.6876 0 30 6.31242 30 15C30 20.4494 27.5113 25.011 23.4311 27.6309C22.9083 27.9666 22.2123 27.8149 21.8766 27.2921C21.5409 26.7692 21.6926 26.0733 22.2154 25.7376C25.6085 23.5589 27.75 19.7353 27.75 15C27.75 7.55506 22.4449 2.25 15 2.25Z" fill="black"/>
<path d="M9.375 15C9.375 14.3787 9.87868 13.875 10.5 13.875H13.875V10.5C13.875 9.87868 14.3787 9.375 15 9.375C15.6213 9.375 16.125 9.87868 16.125 10.5V13.875H19.5C20.1213 13.875 20.625 14.3787 20.625 15C20.625 15.6213 20.1213 16.125 19.5 16.125H16.125V19.5C16.125 20.1213 15.6213 20.625 15 20.625C14.3787 20.625 13.875 20.1213 13.875 19.5V16.125H10.5C9.87868 16.125 9.375 15.6213 9.375 15Z" fill="black"/>
</svg>
