<svg width="28" height="27" viewBox="0 0 28 27" fill="none" xmlns="http://www.w3.org/2000/svg">
<path d="M2.30137 11.8839C2.30137 6.23815 6.44293 2.22823 12.274 2.22823C18.105 2.22823 22.2466 6.23815 22.2466 11.8839C22.2466 15.483 20.5682 18.3718 17.924 20.0156C17.3892 20.3481 17.2341 21.0373 17.5774 21.5551C17.9208 22.0729 18.6327 22.2231 19.1674 21.8906C22.5144 19.8098 24.5479 16.1901 24.5479 11.8839C24.5479 5.00754 19.376 0 12.274 0C5.17192 0 0 5.00754 0 11.8839C0 18.7602 5.17192 23.7677 12.274 23.7677C13.6254 23.7677 14.9139 23.5863 16.1151 23.2399C16.7241 23.0643 17.0708 22.4438 16.8894 21.8541C16.708 21.2644 16.0672 20.9287 15.4581 21.1044C14.4787 21.3869 13.412 21.5395 12.274 21.5395C6.44293 21.5395 2.30137 17.5296 2.30137 11.8839Z" fill="black"/>
<path d="M23.8274 21.3844C23.378 20.9493 22.6494 20.9493 22.2 21.3844C21.7507 21.8195 21.7507 22.5249 22.2 22.96L26.0357 26.6737C26.485 27.1088 27.2136 27.1088 27.663 26.6737C28.1123 26.2386 28.1123 25.5332 27.663 25.0981L23.8274 21.3844Z" fill="black"/>
</svg>
