<svg width="28" height="28" viewBox="0 0 28 28" fill="none" xmlns="http://www.w3.org/2000/svg">
<path d="M20.4514 0.772195C21.4858 -0.2574 23.1628 -0.257396 24.1972 0.772196L27.1612 3.72249C28.1955 4.75208 28.1955 6.42138 27.1612 7.45098L19.1995 15.376C18.7562 15.8172 18.0374 15.8172 17.5941 15.376C17.1508 14.9347 17.1508 14.2193 17.5941 13.778L25.5558 5.85305C25.7036 5.70597 25.7036 5.4675 25.5558 5.32041L22.5919 2.37012C22.4441 2.22303 22.2045 2.22303 22.0568 2.37012L20.5242 3.89558L22.3702 5.73305C22.8135 6.1743 22.8135 6.88972 22.3702 7.33097C21.9269 7.77222 21.2082 7.77222 20.7649 7.33097L18.9189 5.49351L11.046 13.3301C10.9942 13.3817 10.9585 13.4471 10.9434 13.5185L10.1147 17.4174C10.0569 17.6893 10.3047 17.9277 10.5757 17.861L14.3487 16.932C14.4155 16.9155 14.4766 16.8812 14.5253 16.8327L15.3473 16.0145C15.7906 15.5733 16.5093 15.5733 16.9526 16.0145C17.3959 16.4558 17.3959 17.1712 16.9526 17.6124L16.1307 18.4306C15.7897 18.7701 15.362 19.0104 14.8938 19.1257L11.1209 20.0547C9.22376 20.5218 7.48907 18.8529 7.89358 16.9497L8.72226 13.0508C8.82842 12.5513 9.078 12.0932 9.44067 11.7322L20.4514 0.772195Z" fill="black"/>
<path d="M2.27027 2.76551C2.27027 2.5575 2.43968 2.38888 2.64865 2.38888H13.2432C13.8702 2.38888 14.3784 1.883 14.3784 1.25897C14.3784 0.634945 13.8702 0.12907 13.2432 0.12907H2.64865C1.18584 0.12907 0 1.30944 0 2.76551V25.3636C0 26.8196 1.18584 28 2.64865 28H25.3514C26.8142 28 28 26.8196 28 25.3636V14.8178C28 14.1938 27.4918 13.6879 26.8649 13.6879C26.2379 13.6879 25.7297 14.1938 25.7297 14.8178V25.3636C25.7297 25.5716 25.5603 25.7402 25.3514 25.7402H2.64865C2.43968 25.7402 2.27027 25.5716 2.27027 25.3636V2.76551Z" fill="black"/>
</svg>
