<svg width="32" height="27" viewBox="0 0 32 27" fill="none" xmlns="http://www.w3.org/2000/svg">
<path d="M7.06977 0C7.68627 0 8.18605 0.507396 8.18605 1.1333V4.15544C8.18605 4.78134 7.68627 5.28874 7.06977 5.28874C6.45326 5.28874 5.95349 4.78134 5.95349 4.15544V1.1333C5.95349 0.507396 6.45326 0 7.06977 0Z" fill="black"/>
<path d="M27.7544 16.0385C28.2772 16.3702 28.4361 17.0694 28.1094 17.6002L24.3885 23.6444C24.2082 23.9373 23.9062 24.1307 23.5682 24.1698C23.2302 24.2089 22.8931 24.0894 22.6525 23.8451L20.42 21.5785C19.984 21.136 19.984 20.4184 20.42 19.9758C20.8559 19.5332 21.5627 19.5332 21.9986 19.9758L23.239 21.2351L26.2162 16.3989C26.5429 15.8681 27.2316 15.7067 27.7544 16.0385Z" fill="black"/>
<path d="M17.4884 0C18.1049 0 18.6047 0.507396 18.6047 1.1333V4.15544C18.6047 4.78134 18.1049 5.28874 17.4884 5.28874C16.8719 5.28874 16.3721 4.78134 16.3721 4.15544V1.1333C16.3721 0.507396 16.8719 0 17.4884 0Z" fill="black"/>
<path d="M11.5349 9.82194C10.9184 9.82194 10.4186 10.3293 10.4186 10.9552C10.4186 11.5811 10.9184 12.0885 11.5349 12.0885H13.0233C13.6398 12.0885 14.1395 11.5811 14.1395 10.9552C14.1395 10.3293 13.6398 9.82194 13.0233 9.82194H11.5349Z" fill="black"/>
<path d="M10.4186 14.7329C10.4186 14.107 10.9184 13.5996 11.5349 13.5996H13.0233C13.6398 13.5996 14.1395 14.107 14.1395 14.7329C14.1395 15.3588 13.6398 15.8662 13.0233 15.8662H11.5349C10.9184 15.8662 10.4186 15.3588 10.4186 14.7329Z" fill="black"/>
<path d="M6.32558 9.82194C5.70908 9.82194 5.2093 10.3293 5.2093 10.9552C5.2093 11.5811 5.70908 12.0885 6.32558 12.0885H7.81395C8.43046 12.0885 8.93023 11.5811 8.93023 10.9552C8.93023 10.3293 8.43046 9.82194 7.81395 9.82194H6.32558Z" fill="black"/>
<path d="M5.2093 14.7329C5.2093 14.107 5.70908 13.5996 6.32558 13.5996H7.81395C8.43046 13.5996 8.93023 14.107 8.93023 14.7329C8.93023 15.3588 8.43046 15.8662 7.81395 15.8662H6.32558C5.70908 15.8662 5.2093 15.3588 5.2093 14.7329Z" fill="black"/>
<path d="M16.7442 9.82194C16.1277 9.82194 15.6279 10.3293 15.6279 10.9552C15.6279 11.5811 16.1277 12.0885 16.7442 12.0885H18.2326C18.8491 12.0885 19.3488 11.5811 19.3488 10.9552C19.3488 10.3293 18.8491 9.82194 18.2326 9.82194H16.7442Z" fill="black"/>
<path d="M24.186 13.4004C21.1035 13.4004 18.6047 15.9374 18.6047 19.0669C18.6047 22.1964 21.1035 24.7334 24.186 24.7334C24.9818 24.7334 25.7359 24.5649 26.418 24.2622C26.9829 24.0115 27.641 24.2732 27.888 24.8467C28.1349 25.4202 27.8771 26.0884 27.3122 26.339C26.3535 26.7645 25.2955 27 24.186 27C19.8705 27 16.3721 23.4482 16.3721 19.0669C16.3721 14.6856 19.8705 11.1338 24.186 11.1338C28.5016 11.1338 32 14.6856 32 19.0669C32 20.4248 31.663 21.7061 31.0683 22.826C30.7758 23.3769 30.0987 23.5828 29.556 23.2858C29.0134 22.9888 28.8106 22.3014 29.1031 21.7504C29.5266 20.9528 29.7674 20.0401 29.7674 19.0669C29.7674 15.9374 27.2686 13.4004 24.186 13.4004Z" fill="black"/>
<path d="M2.23256 4.91097C2.23256 4.70233 2.39915 4.5332 2.60465 4.5332H4.09302C4.70953 4.5332 5.2093 4.02581 5.2093 3.3999C5.2093 2.774 4.70953 2.2666 4.09302 2.2666H2.60465C1.16614 2.2666 0 3.45052 0 4.91097V20.0216C0 21.4821 1.16614 22.666 2.60465 22.666H14.5116C15.1281 22.666 15.6279 22.1586 15.6279 21.5327C15.6279 20.9068 15.1281 20.3994 14.5116 20.3994H2.60465C2.39915 20.3994 2.23256 20.2303 2.23256 20.0216V4.91097Z" fill="black"/>
<path d="M10.0465 2.2666C9.43001 2.2666 8.93023 2.774 8.93023 3.3999C8.93023 4.02581 9.43001 4.5332 10.0465 4.5332H14.5116C15.1281 4.5332 15.6279 4.02581 15.6279 3.3999C15.6279 2.774 15.1281 2.2666 14.5116 2.2666H10.0465Z" fill="black"/>
<path d="M20.4651 2.2666C19.8486 2.2666 19.3488 2.774 19.3488 3.3999C19.3488 4.02581 19.8486 4.5332 20.4651 4.5332H21.9535C22.159 4.5332 22.3256 4.70233 22.3256 4.91097V8.68864C22.3256 9.31454 22.8254 9.82194 23.4419 9.82194C24.0584 9.82194 24.5581 9.31454 24.5581 8.68864V4.91097C24.5581 3.45053 23.392 2.2666 21.9535 2.2666H20.4651Z" fill="black"/>
</svg>
