<svg width="24" height="30" viewBox="0 0 24 30" fill="none" xmlns="http://www.w3.org/2000/svg">
<path fill-rule="evenodd" clip-rule="evenodd" d="M12 0C8.86783 0 5.88114 1.40234 3.68621 3.4958C1.49396 5.5867 0 8.45714 0 11.4878C0 11.9129 0.0259007 12.3328 0.0763723 12.7458C0.238597 14.4814 0.930434 16.405 1.8473 18.2683C2.7746 20.1528 3.96839 22.048 5.19697 23.7345C6.42464 25.4199 7.70552 26.9222 8.81864 28.0152C9.37305 28.5596 9.90677 29.0232 10.3876 29.3588C10.6279 29.5265 10.8754 29.6766 11.1217 29.7883C11.355 29.8941 11.6617 30 12 30C12.3337 30 12.6144 29.8857 12.8063 29.7846C13.0075 29.6785 13.1938 29.5425 13.3587 29.4062C13.6874 29.1342 14.0341 28.7736 14.3761 28.3905C14.7966 27.9196 15.2774 27.3362 15.7679 26.7409C16.0619 26.3841 16.3594 26.0231 16.6496 25.6794C17.0397 25.2175 16.9836 24.5248 16.5245 24.1324C16.0653 23.7399 15.3768 23.7963 14.9868 24.2583C14.6538 24.6527 14.3392 25.0347 14.0405 25.3975C13.5768 25.9607 13.1508 26.4781 12.753 26.9236C12.4317 27.2835 12.1725 27.5455 11.9731 27.7105C11.9584 27.7226 11.9447 27.7337 11.9318 27.7439C11.8532 27.7015 11.7531 27.6403 11.6311 27.5551C11.2869 27.3149 10.8496 26.9422 10.3426 26.4443C9.33286 25.4528 8.12945 24.0468 6.95677 22.4369C5.785 20.8284 4.66238 19.0416 3.80262 17.2944C2.93553 15.5323 2.37122 13.8811 2.24737 12.527C2.2463 12.5152 2.24503 12.5035 2.24358 12.4917C2.20282 12.1629 2.18182 11.8279 2.18182 11.4878C2.18182 9.18421 3.33077 6.85953 5.18726 5.08887C7.04105 3.32077 9.5089 2.19512 12 2.19512C14.4911 2.19512 16.959 3.32077 18.8127 5.08887C20.6692 6.85953 21.8182 9.18421 21.8182 11.4878C21.8182 11.8279 21.7972 12.1629 21.7564 12.4917L21.7547 12.5065L21.7526 12.527C21.6539 13.6059 21.1264 14.8987 20.326 16.3481C19.6914 17.4973 18.9372 18.6566 18.1879 19.8085C17.9997 20.0978 17.8118 20.3867 17.6261 20.6748C17.2984 21.1834 17.4426 21.863 17.9481 22.1928C18.4537 22.5225 19.1292 22.3774 19.4569 21.8688C19.6303 21.5997 19.8098 21.3238 19.9927 21.0428C20.7458 19.8855 21.5561 18.6402 22.2332 17.4143C23.0651 15.908 23.7779 14.2916 23.9236 12.7461C23.9741 12.3329 24 11.913 24 11.4878C24 8.45714 22.506 5.5867 20.3138 3.4958C18.1189 1.40234 15.1322 0 12 0Z" fill="black"/>
<path fill-rule="evenodd" clip-rule="evenodd" d="M18.5455 11.3415C18.5455 14.9785 15.615 17.9268 12 17.9268C8.38505 17.9268 5.45455 14.9785 5.45455 11.3415C5.45455 7.70447 8.38505 4.7561 12 4.7561C15.615 4.7561 18.5455 7.70447 18.5455 11.3415ZM16.3636 11.3415C16.3636 13.7661 14.41 15.7317 12 15.7317C9.59003 15.7317 7.63636 13.7661 7.63636 11.3415C7.63636 8.9168 9.59003 6.95122 12 6.95122C14.41 6.95122 16.3636 8.9168 16.3636 11.3415Z" fill="black"/>
</svg>
